<?xml version="1.0" encoding="UTF-8" standalone="no"?>
<svg width="14px" height="14px" viewBox="0 0 14 14" version="1.1" xmlns="http://www.w3.org/2000/svg" xmlns:xlink="http://www.w3.org/1999/xlink">
    <!-- Generator: Sketch 47.1 (45422) - http://www.bohemiancoding.com/sketch -->
    <title>场景图标/更多/协作成员+AddMemberSmallGray</title>
    <desc>Created with Sketch.</desc>
    <defs></defs>
    <g id="Symbols" stroke="none" stroke-width="1" fill="none" fill-rule="evenodd">
        <g id="场景图标/更多/协作成员+AddMemberSmallGray" fill-rule="nonzero" fill="#999999">
            <path d="M1,11.9682459 L1,12 L11,12 L11,11.9678048 C10.9977169,11.9670306 9.87729964,11.3363448 7.63874811,10.0757473 C7.00548844,9.75823628 6.56521739,9.04613357 6.56521739,8.36363636 C6.56521739,7.76724825 6.72851072,7.27202105 7.04288936,6.92368166 C7.55611596,6.27721114 7.86956522,5.39321198 7.86956522,4.54545455 C7.86956522,3.09854361 6.98042149,2 6,2 C5.01957851,2 4.13043478,3.09854361 4.13043478,4.54545455 C4.13043478,5.39321198 4.44388404,6.27721114 4.91879683,6.87826032 C5.27148928,7.27202105 5.43478261,7.76724825 5.43478261,8.36363636 C5.43478261,9.04613357 4.99451156,9.75823628 4.40359401,10.0532309 L1,11.9682459 Z M11,7 L11,5 L12,5 L12,7 L14,7 L14,8 L12,8 L12,10 L11,10 L11,8 L9,8 L9,7 L11,7 Z M3.13043478,4.54545455 C3.13043478,2.58727273 4.41521739,1 6,1 C7.58478261,1 8.86956522,2.58727273 8.86956522,4.54545455 C8.86956522,5.64945455 8.46026087,6.74663636 7.82608696,7.54545455 C7.65704348,7.73418182 7.56521739,7.98563636 7.56521739,8.36363636 C7.56521739,8.65463636 7.78017391,9.028 8.08695652,9.18181818 L11.4782609,11.0909091 C11.8398261,11.275 12,11.5531818 12,11.9090909 L12,12.4545455 C12,12.6948182 11.708087,13 11.4782609,13 L0.782608696,13 C0.291913043,13 0,12.6948182 0,12.4545455 L0,11.9090909 C0,11.5531818 0.160173913,11.275 0.52173913,11.0909091 L3.91304348,9.18181818 C4.21982609,9.028 4.43478261,8.65463636 4.43478261,8.36363636 C4.43478261,7.98563636 4.34295652,7.73418182 4.17391304,7.54545455 C3.53973913,6.74663636 3.13043478,5.64945455 3.13043478,4.54545455 Z" id="Combined-Shape"></path>
        </g>
    </g>
</svg>