<?xml version="1.0" standalone="no"?><!DOCTYPE svg PUBLIC "-//W3C//DTD SVG 1.1//EN" "http://www.w3.org/Graphics/SVG/1.1/DTD/svg11.dtd"><svg class="icon" width="32px" height="32.00px" viewBox="0 0 1024 1024" version="1.1" xmlns="http://www.w3.org/2000/svg"><path fill="#1296db" d="M682.496 367.104c-16.384-8.192-36.352-2.048-44.544 14.336-0.512 0.512-3.584 7.168-8.704 17.92-15.872-26.112-39.936-45.056-69.632-56.32-37.376-13.824-82.432-12.8-112.64 2.56-48.64 24.576-83.456 70.144-97.792 129.024-10.752 45.056-9.216 95.744 4.608 130.048 19.968 48.64 59.904 79.872 110.592 85.504 5.632 0.512 10.752 1.024 16.384 1.024 39.936 0 78.848-16.384 104.448-43.008 3.584 8.704 8.704 15.872 14.336 23.04 20.992 24.064 52.736 36.352 87.04 33.28 48.64-4.608 96.256-39.424 128-92.672 38.4-65.024 59.392-173.568 19.968-269.312-23.552-57.344-78.848-132.608-209.92-166.912-134.656-35.328-233.984 5.632-293.376 46.592C264.192 268.288 209.92 340.48 187.392 414.72c-50.176 162.304 8.704 320.512 150.016 403.456 47.616 28.16 117.248 44.544 193.024 44.544 79.872 0 167.424-18.432 243.712-61.44 15.872-9.216 21.504-29.184 12.8-45.056-9.216-15.872-29.184-21.504-45.056-12.8-125.952 71.168-290.304 64.512-370.176 17.408-115.2-67.584-161.28-193.024-120.32-326.656 31.744-103.424 156.672-247.296 356.864-194.048 83.968 22.016 139.776 65.536 165.376 128 30.72 74.24 13.312 160.768-15.872 210.432-24.064 41.472-55.808 58.368-76.8 60.416-8.704 1.024-21.504-0.512-30.72-10.752-25.6-29.184 11.264-143.872 47.616-215.552 7.168-17.408 1.024-37.376-15.36-45.568z m-210.944 257.024c-18.432-2.048-43.008-11.264-56.832-44.544-7.168-17.408-10.752-52.736-1.536-89.088C419.84 462.336 436.736 424.96 476.16 404.992c5.632-2.56 15.872-5.12 27.648-5.12 9.728 0 21.504 1.536 32.256 5.632 19.456 7.168 33.792 20.48 41.472 39.424 15.872 38.4-14.848 119.808-37.376 151.552-12.8 19.456-41.472 30.72-68.608 27.648z"  /></svg>