<?xml version="1.0" encoding="UTF-8" standalone="no"?>
<svg width="34px" height="40px" viewBox="0 0 34 40" version="1.1" xmlns="http://www.w3.org/2000/svg" xmlns:xlink="http://www.w3.org/1999/xlink">
    <!-- Generator: Sketch 48.2 (47327) - http://www.bohemiancoding.com/sketch -->
    <title>图标-场景/为空/通知+BellBigGray</title>
    <desc>Created with Sketch.</desc>
    <defs></defs>
    <g id="AAB" stroke="none" stroke-width="1" fill="none" fill-rule="evenodd" transform="translate(-352.000000, -233.000000)">
        <g id="图标-场景/为空/通知+BellBigGray" transform="translate(352.000000, 233.000000)">
            <g id="场景图标/为空/通知">
                <path d="M1,31.5808802 L1,33 L33,33 L33,31.5808802 L30.1666667,28.7475469 L30.1666667,18.4166667 C30.1666667,12.7245145 24.8475808,6.66666667 19.8333333,6.66666667 L18.8333333,6.66666667 L18.8333333,2.83333333 C18.8333333,1.72339586 18.1099375,1 17,1 C15.8900625,1 15.1666667,1.72339586 15.1666667,2.83333333 L15.1666667,6.66666667 L14.1666667,6.66666667 C9.29181799,6.66666667 3.83333333,13.0348988 3.83333333,18.4166667 L3.83333333,28.7475469 L1,31.5808802 Z" id="Shape" stroke="#E6E6E6" stroke-width="2"></path>
                <path d="M11,34 C11,37.3165829 13.6834171,40 17,40 C20.3165829,40 23,37.3165829 23,34 L11,34 L11,34 Z" id="Path" fill="#D9D9D9"></path>
            </g>
        </g>
    </g>
</svg>