<?xml version="1.0" standalone="no"?><!DOCTYPE svg PUBLIC "-//W3C//DTD SVG 1.1//EN" "http://www.w3.org/Graphics/SVG/1.1/DTD/svg11.dtd"><svg class="icon" width="32px" height="32.00px" viewBox="0 0 1024 1024" version="1.1" xmlns="http://www.w3.org/2000/svg"><path fill="#1296db" d="M830.976 328.192h-97.28c-23.04 0-41.472-18.432-41.472-41.472V224.256c0-23.04-18.432-41.472-41.472-41.472H373.248c-23.04 0-41.472 18.432-41.472 41.472V286.72c0 23.04-18.432 41.472-41.472 41.472h-97.28c-23.04 0-41.472 18.432-41.472 41.472v430.08c0 23.04 18.432 41.472 41.472 41.472h638.464c23.04 0 41.472-18.432 41.472-41.472v-430.08c-0.512-23.04-18.944-41.472-41.984-41.472z m-320.512 386.048c-81.92 0-148.48-66.56-148.48-148.48s66.56-148.48 148.48-148.48 148.48 66.56 148.48 148.48-66.56 148.48-148.48 148.48z"  /></svg>