<?xml version="1.0" standalone="no"?><!DOCTYPE svg PUBLIC "-//W3C//DTD SVG 1.1//EN" "http://www.w3.org/Graphics/SVG/1.1/DTD/svg11.dtd"><svg class="icon" width="32px" height="32.00px" viewBox="0 0 1024 1024" version="1.1" xmlns="http://www.w3.org/2000/svg"><path fill="#1296db" d="M372.736 704c-2.56-1.024-5.12-2.048-7.168-3.072-13.824-5.632-28.672-5.12-41.984 1.536l-51.2 34.304 12.8-52.736 0.512-1.536c3.072-15.872-2.048-32.256-13.312-44.032-45.056-45.568-70.144-103.424-70.144-163.328C202.24 337.408 331.264 225.28 490.496 225.28c114.688 0 214.016 58.368 260.096 143.36 31.232 9.216 60.416 23.04 86.528 40.96-34.304-143.36-176.64-250.88-346.624-250.88-195.584 0-354.304 142.336-354.304 316.928 0 74.752 29.184 146.432 82.432 203.264l-24.576 99.84c-4.608 17.92 2.56 35.84 17.408 46.592 7.68 5.12 16.384 7.68 25.088 7.68 8.704 0 16.896-2.56 24.576-7.68l87.552-59.392c21.504 8.704 44.032 14.848 67.072 19.456-18.944-24.576-33.792-52.224-43.008-81.408z"  /><path fill="#1296db" d="M829.952 877.056c-7.168 0-14.848-2.048-21.504-6.656l-55.296-37.376c-29.696 11.264-61.44 16.896-94.208 16.896-136.192 0-246.784-99.328-246.784-221.696s110.592-221.696 246.784-221.696S906.24 505.856 906.24 628.224c0 50.688-19.456 99.84-54.784 139.264l15.36 62.976c3.584 15.36-2.048 31.232-15.36 39.936-6.144 4.608-13.824 6.656-21.504 6.656z m-170.496-409.088c-102.4 0-185.344 71.68-185.344 160.256s83.456 160.256 185.344 160.256c28.16 0 55.296-5.12 80.896-15.872 11.264-4.608 24.064-4.096 35.328 1.536l3.072 2.048 14.336 9.728-4.096-15.872c-2.56-13.312 1.536-27.136 11.264-36.864 28.672-29.184 44.544-66.048 44.544-103.936 0-89.6-83.456-161.28-185.344-161.28z"  /></svg>