<?xml version="1.0" standalone="no"?><!DOCTYPE svg PUBLIC "-//W3C//DTD SVG 1.1//EN" "http://www.w3.org/Graphics/SVG/1.1/DTD/svg11.dtd"><svg class="icon" width="32px" height="32.00px" viewBox="0 0 1024 1024" version="1.1" xmlns="http://www.w3.org/2000/svg"><path fill="#1296db" d="M686.592 867.84H337.408c-89.6 0-162.304-76.288-162.304-170.496V326.656c0-93.696 72.704-170.496 162.304-170.496h309.248c18.432 0 33.28 14.848 33.28 33.28s-14.848 33.28-33.28 33.28H337.408c-52.736 0-95.744 46.592-95.744 103.936v371.2c0 57.344 43.008 103.936 95.744 103.936H686.08c52.736 0 95.744-46.592 95.744-103.936v-209.92c0-18.432 14.848-33.28 33.28-33.28s33.28 14.848 33.28 33.28v209.92c0.512 93.696-72.704 169.984-161.792 169.984z"  /><path fill="#1296db" d="M480.256 659.968c-17.408 0-33.792-7.168-45.568-19.968l-98.304-104.448c-12.8-13.312-11.776-34.304 1.536-47.104 13.312-12.8 34.304-11.776 47.104 1.536l95.232 101.376L791.04 261.12c12.8-13.312 33.792-13.824 47.104-1.536 13.312 12.8 13.824 33.792 1.536 47.104L526.336 640c-12.288 12.8-28.672 19.968-46.08 19.968z"  /></svg>