<?xml version="1.0" standalone="no"?><!DOCTYPE svg PUBLIC "-//W3C//DTD SVG 1.1//EN" "http://www.w3.org/Graphics/SVG/1.1/DTD/svg11.dtd"><svg class="icon" width="32px" height="32.00px" viewBox="0 0 1024 1024" version="1.1" xmlns="http://www.w3.org/2000/svg"><path fill="#1296db" d="M512 872.96c-11.776 0-22.528-6.144-28.672-16.384L416.256 742.4H191.488c-18.432 0-33.28-14.848-33.28-33.28V192.512c0-18.432 14.848-33.28 33.28-33.28h641.024c18.432 0 33.28 14.848 33.28 33.28v516.608c0 18.432-14.848 33.28-33.28 33.28h-224.768l-67.072 114.176c-6.144 10.24-16.896 16.384-28.672 16.384zM224.768 675.84H435.2c11.776 0 22.528 6.144 28.672 16.384l47.616 81.408 47.616-81.408c6.144-10.24 16.896-16.384 28.672-16.384H798.72V225.792H224.768V675.84z"  /><path fill="#1296db" d="M353.792 451.072m-41.472 0a41.472 41.472 0 1 0 82.944 0 41.472 41.472 0 1 0-82.944 0Z"  /><path fill="#1296db" d="M513.536 451.072m-41.472 0a41.472 41.472 0 1 0 82.944 0 41.472 41.472 0 1 0-82.944 0Z"  /><path fill="#1296db" d="M673.28 451.072m-41.472 0a41.472 41.472 0 1 0 82.944 0 41.472 41.472 0 1 0-82.944 0Z"  /></svg>