<?xml version="1.0" standalone="no"?><!DOCTYPE svg PUBLIC "-//W3C//DTD SVG 1.1//EN" "http://www.w3.org/Graphics/SVG/1.1/DTD/svg11.dtd"><svg class="icon" width="32px" height="32.00px" viewBox="0 0 1024 1024" version="1.1" xmlns="http://www.w3.org/2000/svg"><path fill="#1296db" d="M515.072 762.368c-15.36 0-30.72-5.632-42.496-17.408L331.776 604.16c-12.8-12.8-12.8-34.304 0-47.104 12.8-12.8 34.304-12.8 47.104 0l136.192 136.192 136.192-136.192c12.8-12.8 34.304-12.8 47.104 0 12.8 12.8 12.8 34.304 0 47.104L558.08 744.448c-11.776 11.776-27.648 17.92-43.008 17.92z"  /><path fill="#1296db" d="M516.096 760.832c-18.432 0-33.28-14.848-33.28-33.28l1.536-421.376c0-18.432 14.848-33.28 33.28-33.28s33.28 14.848 33.28 33.28l-1.536 421.376c0 18.432-14.848 33.28-33.28 33.28z"  /><path fill="#1296db" d="M706.56 896.512H317.952c-89.6 0-162.304-72.704-162.304-162.304V301.056C155.136 211.456 228.352 138.24 317.952 138.24H706.56c89.6 0 162.304 72.704 162.304 162.304v433.152c0 90.112-72.704 162.816-162.304 162.816zM317.952 204.8c-52.736 0-95.744 43.008-95.744 95.744v433.152c0 52.736 43.008 95.744 95.744 95.744H706.56c52.736 0 95.744-43.008 95.744-95.744V301.056c0-52.736-43.008-95.744-95.744-95.744H317.952z"  /></svg>