<?xml version="1.0" standalone="no"?><!DOCTYPE svg PUBLIC "-//W3C//DTD SVG 1.1//EN" "http://www.w3.org/Graphics/SVG/1.1/DTD/svg11.dtd"><svg class="icon" width="32px" height="32.00px" viewBox="0 0 1024 1024" version="1.1" xmlns="http://www.w3.org/2000/svg"><path fill="#1296db" d="M621.056 880.64c-18.432 0-33.28-14.848-33.28-33.28v-298.496c0-5.632 1.536-11.776 4.608-16.384l176.64-305.664h-517.12L428.544 532.48c3.072 5.12 4.608 10.752 4.608 16.384v298.496c0 18.432-14.848 33.28-33.28 33.28s-33.28-14.848-33.28-33.28v-289.792L165.376 209.92c-6.144-10.24-6.144-23.04 0-33.28s16.896-16.384 28.672-16.384h631.808c11.776 0 23.04 6.144 28.672 16.384s6.144 23.04 0 33.28l-200.704 347.648v289.792c0.512 18.432-14.336 33.28-32.768 33.28z"  /></svg>