<?xml version="1.0" standalone="no"?><!DOCTYPE svg PUBLIC "-//W3C//DTD SVG 1.1//EN" "http://www.w3.org/Graphics/SVG/1.1/DTD/svg11.dtd"><svg class="icon" width="32px" height="32.00px" viewBox="0 0 1024 1024" version="1.1" xmlns="http://www.w3.org/2000/svg"><path fill="#1296db" d="M613.376 893.44H415.232c-40.96 0-77.312-20.48-99.328-51.712-9.728 4.608-20.48 6.656-31.744 6.656H218.624c-42.496 0-77.312-34.816-77.312-77.312V463.36c0-42.496 34.816-77.312 77.312-77.312h66.048c11.776 0 22.528 2.56 32.256 7.168 6.144-8.192 13.312-15.872 21.504-22.528C386.56 321.024 404.48 241.664 404.48 200.192 404.48 163.328 438.272 138.24 486.912 138.24c27.648 0 54.272 8.192 75.264 23.552 26.624 19.456 40.96 48.64 40.96 82.432V343.04h142.848c67.072 0 121.344 54.272 121.344 121.344V640c-1.024 139.776-114.176 253.44-253.952 253.44z m-252.416-113.152c4.096 26.624 26.624 46.592 54.272 46.592h198.144c102.912 0 186.88-83.968 186.88-186.88V463.872c0-30.208-24.576-54.784-54.784-54.784h-176.128c-18.432 0-33.28-14.848-33.28-33.28V243.712c0-9.728-2.048-24.064-20.992-33.28-17.408-8.192-36.352-6.656-44.544-4.096-1.536 48.64-20.992 146.944-86.528 212.48-1.024 1.024-2.048 1.536-2.56 2.56-10.752 8.704-17.92 20.992-19.968 34.304 0.512 2.56 0.512 5.12 0.512 7.68v308.224c-0.512 2.56-0.512 5.632-1.024 8.704z m-142.336-327.68c-6.144 0-10.752 4.608-10.752 10.752v308.224c0 6.144 4.608 10.752 10.752 10.752h66.048c4.096 0 8.192-2.56 9.728-6.144v-312.32-5.12c-1.536-3.584-5.632-6.144-9.728-6.144H218.624z"  /></svg>