<?xml version="1.0" standalone="no"?><!DOCTYPE svg PUBLIC "-//W3C//DTD SVG 1.1//EN" "http://www.w3.org/Graphics/SVG/1.1/DTD/svg11.dtd"><svg class="icon" width="32px" height="32.00px" viewBox="0 0 1024 1024" version="1.1" xmlns="http://www.w3.org/2000/svg"><path fill="#1296db" d="M868.352 555.008c-40.448-28.672-109.056-77.312-129.536-91.136-1.024-3.072-2.048-10.24-0.512-22.528 0-1.536 5.12-8.192 8.192-11.776 8.192-10.24 18.944-24.576 26.112-45.568 7.168-20.992 24.576-112.128-19.456-173.056-16.896-23.04-49.152-50.688-108.544-50.688-30.72 0-54.272 7.68-72.192 17.92 10.752 9.216 20.48 19.456 28.672 31.232 5.12 7.168 10.24 15.36 14.336 23.04 8.192-3.072 17.92-4.608 29.184-4.608 25.088 0 43.008 7.68 53.76 22.528 12.8 17.92 15.872 43.008 15.872 61.44 0.512 23.04-3.584 43.52-6.144 51.2-3.584 10.24-8.704 16.896-15.36 25.088-8.704 11.264-19.968 25.6-22.528 46.592-5.12 50.176 12.288 73.216 27.648 83.968 16.384 10.752 96.768 68.096 130.56 91.648 1.536 1.024 2.56 3.072 2.56 5.12v16.384c0 3.584-3.072 6.656-6.656 6.656h-87.04c20.48 17.408 47.616 41.472 53.76 67.584h34.304c40.96 0 73.728-33.28 73.728-73.728v-16.384c0.512-24.576-11.264-47.104-30.72-60.928zM670.208 857.088H207.36c-46.592 0-84.992-37.888-84.992-84.992v-20.992c0-27.648 13.312-53.248 35.84-69.12 53.76-37.888 145.92-103.424 167.936-118.784 1.536-2.56 5.12-13.824 2.56-36.352-0.512-4.608-5.12-10.752-12.8-20.48-9.728-12.8-23.552-29.696-32.256-55.296-8.704-26.112-30.208-138.24 23.552-212.48 19.968-27.648 58.88-60.928 131.072-60.928 72.192 0 111.104 33.28 131.072 60.928 53.248 74.24 31.744 186.368 23.552 212.48-8.704 25.6-22.016 43.008-32.256 55.296-7.68 9.728-12.288 15.36-12.8 20.48-2.56 22.528 1.024 33.792 2.56 36.352 22.016 14.848 114.688 80.384 167.936 118.784 22.528 15.872 35.84 41.472 35.84 69.12v20.992c1.024 46.592-37.376 84.992-83.968 84.992zM438.784 244.736c-35.84 0-60.928 10.752-77.312 33.28-33.28 46.592-22.016 129.536-14.336 152.576 4.608 14.336 12.8 24.576 20.992 35.328 11.264 14.336 24.064 30.208 26.624 54.784 6.144 59.392-13.824 86.016-31.232 98.304-20.992 13.824-123.904 87.04-167.424 117.76-4.608 3.584-7.68 9.216-7.68 14.848v20.992c0 10.24 8.192 18.432 18.432 18.432h462.848c10.24 0 18.432-8.192 18.432-18.432v-20.992c0-6.144-3.072-11.264-7.68-14.848-43.52-30.72-146.432-103.936-167.424-117.76-17.92-11.776-37.376-38.4-31.232-98.304 2.56-24.064 15.36-40.448 26.624-54.784 8.192-10.752 16.384-20.48 20.992-35.328 7.68-23.04 19.456-105.984-14.336-152.576-15.36-22.528-40.448-33.28-76.288-33.28z m112.64 319.488z m-225.28 0z"  /></svg>