<?xml version="1.0" standalone="no"?><!DOCTYPE svg PUBLIC "-//W3C//DTD SVG 1.1//EN" "http://www.w3.org/Graphics/SVG/1.1/DTD/svg11.dtd"><svg class="icon" width="32px" height="32.00px" viewBox="0 0 1024 1024" version="1.1" xmlns="http://www.w3.org/2000/svg"><path fill="#1296db" d="M513.024 152.064c-199.68 0-361.472 161.792-361.472 361.472 0 199.68 161.792 361.472 361.472 361.472 199.68 0 361.472-161.792 361.472-361.472 0-199.68-161.792-361.472-361.472-361.472z m0 660.992c-165.376 0-299.52-134.144-299.52-299.52s134.144-299.52 299.52-299.52 299.52 134.144 299.52 299.52c0.512 165.376-133.632 299.52-299.52 299.52z m151.04-299.52h-120.32V332.8c0-16.384-13.312-30.208-30.208-30.208-16.384 0-30.208 13.312-30.208 30.208v210.944c0 16.384 13.312 30.208 30.208 30.208h150.528c16.384 0 30.208-13.312 30.208-30.208-0.512-16.896-13.824-30.208-30.208-30.208z"  /></svg>