<?xml version="1.0" standalone="no"?><!DOCTYPE svg PUBLIC "-//W3C//DTD SVG 1.1//EN" "http://www.w3.org/Graphics/SVG/1.1/DTD/svg11.dtd"><svg class="icon" width="32px" height="32.00px" viewBox="0 0 1024 1024" version="1.1" xmlns="http://www.w3.org/2000/svg"><path fill="#1296db" d="M834.56 252.928H189.44c-18.432 0-33.28-14.848-33.28-33.28s14.848-33.28 33.28-33.28h645.12c18.432 0 33.28 14.848 33.28 33.28s-14.848 33.28-33.28 33.28zM834.56 541.696H189.44c-18.432 0-33.28-14.848-33.28-33.28s14.848-33.28 33.28-33.28h645.12c18.432 0 33.28 14.848 33.28 33.28s-14.848 33.28-33.28 33.28zM834.56 829.952H189.44c-18.432 0-33.28-14.848-33.28-33.28s14.848-33.28 33.28-33.28h645.12c18.432 0 33.28 14.848 33.28 33.28s-14.848 33.28-33.28 33.28z"  /></svg>