<?xml version="1.0" encoding="utf-8"?><svg version="1.1" xmlns="http://www.w3.org/2000/svg" width="168" height="168" data-sprite-id="755b40a28f4cb2227153461030d70f54" data-total="13"><svg class="icon" width="32" height="32" viewBox="0 0 1024 1024" xmlns="http://www.w3.org/2000/svg" x="42" y="0" data-name="At" data-svg-id="2464391feb"><path fill="#1296db" d="M682.496 367.104c-16.384-8.192-36.352-2.048-44.544 14.336-.512.512-3.584 7.168-8.704 17.92-15.872-26.112-39.936-45.056-69.632-56.32-37.376-13.824-82.432-12.8-112.64 2.56-48.64 24.576-83.456 70.144-97.792 129.024-10.752 45.056-9.216 95.744 4.608 130.048 19.968 48.64 59.904 79.872 110.592 85.504 5.632.512 10.752 1.024 16.384 1.024 39.936 0 78.848-16.384 104.448-43.008 3.584 8.704 8.704 15.872 14.336 23.04 20.992 24.064 52.736 36.352 87.04 33.28 48.64-4.608 96.256-39.424 128-92.672 38.4-65.024 59.392-173.568 19.968-269.312-23.552-57.344-78.848-132.608-209.92-166.912-134.656-35.328-233.984 5.632-293.376 46.592-67.072 46.08-121.344 118.272-143.872 192.512-50.176 162.304 8.704 320.512 150.016 403.456 47.616 28.16 117.248 44.544 193.024 44.544 79.872 0 167.424-18.432 243.712-61.44 15.872-9.216 21.504-29.184 12.8-45.056-9.216-15.872-29.184-21.504-45.056-12.8-125.952 71.168-290.304 64.512-370.176 17.408-115.2-67.584-161.28-193.024-120.32-326.656 31.744-103.424 156.672-247.296 356.864-194.048 83.968 22.016 139.776 65.536 165.376 128 30.72 74.24 13.312 160.768-15.872 210.432-24.064 41.472-55.808 58.368-76.8 60.416-8.704 1.024-21.504-.512-30.72-10.752-25.6-29.184 11.264-143.872 47.616-215.552 7.168-17.408 1.024-37.376-15.36-45.568zM471.552 624.128c-18.432-2.048-43.008-11.264-56.832-44.544-7.168-17.408-10.752-52.736-1.536-89.088 6.656-28.16 23.552-65.536 62.976-85.504 5.632-2.56 15.872-5.12 27.648-5.12 9.728 0 21.504 1.536 32.256 5.632 19.456 7.168 33.792 20.48 41.472 39.424 15.872 38.4-14.848 119.808-37.376 151.552-12.8 19.456-41.472 30.72-68.608 27.648z"/></svg><svg class="icon" width="32" height="32" viewBox="0 0 1024 1024" xmlns="http://www.w3.org/2000/svg" x="0" y="84" data-name="Camera" data-svg-id="36293f45af"><path fill="#1296db" d="M830.976 328.192h-97.28c-23.04 0-41.472-18.432-41.472-41.472v-62.464c0-23.04-18.432-41.472-41.472-41.472H373.248c-23.04 0-41.472 18.432-41.472 41.472v62.464c0 23.04-18.432 41.472-41.472 41.472h-97.28c-23.04 0-41.472 18.432-41.472 41.472v430.08c0 23.04 18.432 41.472 41.472 41.472h638.464c23.04 0 41.472-18.432 41.472-41.472v-430.08c-.512-23.04-18.944-41.472-41.984-41.472zM510.464 714.24c-81.92 0-148.48-66.56-148.48-148.48s66.56-148.48 148.48-148.48 148.48 66.56 148.48 148.48-66.56 148.48-148.48 148.48z"/></svg><svg class="icon" width="32" height="32" viewBox="0 0 1024 1024" xmlns="http://www.w3.org/2000/svg" x="0" y="42" data-name="Chat" data-svg-id="47378ba9bd"><path fill="#1296db" d="M372.736 704c-2.56-1.024-5.12-2.048-7.168-3.072-13.824-5.632-28.672-5.12-41.984 1.536l-51.2 34.304 12.8-52.736.512-1.536c3.072-15.872-2.048-32.256-13.312-44.032-45.056-45.568-70.144-103.424-70.144-163.328 0-137.728 129.024-249.856 288.256-249.856 114.688 0 214.016 58.368 260.096 143.36 31.232 9.216 60.416 23.04 86.528 40.96-34.304-143.36-176.64-250.88-346.624-250.88-195.584 0-354.304 142.336-354.304 316.928 0 74.752 29.184 146.432 82.432 203.264l-24.576 99.84c-4.608 17.92 2.56 35.84 17.408 46.592 7.68 5.12 16.384 7.68 25.088 7.68s16.896-2.56 24.576-7.68l87.552-59.392c21.504 8.704 44.032 14.848 67.072 19.456-18.944-24.576-33.792-52.224-43.008-81.408z"/><path fill="#1296db" d="M829.952 877.056c-7.168 0-14.848-2.048-21.504-6.656l-55.296-37.376c-29.696 11.264-61.44 16.896-94.208 16.896-136.192 0-246.784-99.328-246.784-221.696s110.592-221.696 246.784-221.696S906.24 505.856 906.24 628.224c0 50.688-19.456 99.84-54.784 139.264l15.36 62.976c3.584 15.36-2.048 31.232-15.36 39.936-6.144 4.608-13.824 6.656-21.504 6.656zM659.456 467.968c-102.4 0-185.344 71.68-185.344 160.256S557.568 788.48 659.456 788.48c28.16 0 55.296-5.12 80.896-15.872 11.264-4.608 24.064-4.096 35.328 1.536l3.072 2.048 14.336 9.728-4.096-15.872c-2.56-13.312 1.536-27.136 11.264-36.864C828.928 704 844.8 667.136 844.8 629.248c0-89.6-83.456-161.28-185.344-161.28z"/></svg><svg class="icon" width="32" height="32" viewBox="0 0 1024 1024" xmlns="http://www.w3.org/2000/svg" x="42" y="42" data-name="Check" data-svg-id="6addd28941"><path fill="#1296db" d="M686.592 867.84H337.408c-89.6 0-162.304-76.288-162.304-170.496V326.656c0-93.696 72.704-170.496 162.304-170.496h309.248c18.432 0 33.28 14.848 33.28 33.28s-14.848 33.28-33.28 33.28H337.408c-52.736 0-95.744 46.592-95.744 103.936v371.2c0 57.344 43.008 103.936 95.744 103.936H686.08c52.736 0 95.744-46.592 95.744-103.936v-209.92c0-18.432 14.848-33.28 33.28-33.28s33.28 14.848 33.28 33.28v209.92c.512 93.696-72.704 169.984-161.792 169.984z"/><path fill="#1296db" d="M480.256 659.968c-17.408 0-33.792-7.168-45.568-19.968l-98.304-104.448c-12.8-13.312-11.776-34.304 1.536-47.104 13.312-12.8 34.304-11.776 47.104 1.536l95.232 101.376L791.04 261.12c12.8-13.312 33.792-13.824 47.104-1.536 13.312 12.8 13.824 33.792 1.536 47.104L526.336 640c-12.288 12.8-28.672 19.968-46.08 19.968z"/></svg><svg class="icon" width="32" height="32" viewBox="0 0 1024 1024" xmlns="http://www.w3.org/2000/svg" x="84" y="0" data-name="Close" data-svg-id="4eb646b3f0"><path fill="#1296db" d="M512 153.6c-198.144 0-358.4 160.256-358.4 358.4S313.856 870.4 512 870.4 870.4 710.144 870.4 512 710.144 153.6 512 153.6zm201.728 512.512l-47.616 47.616L512 559.616 357.888 713.728l-47.616-47.616L464.384 512 310.272 357.888l47.616-47.616L512 464.384l154.112-154.112 47.616 47.616L559.616 512l154.112 154.112z"/></svg><svg class="icon" width="32" height="32" viewBox="0 0 1024 1024" xmlns="http://www.w3.org/2000/svg" x="84" y="42" data-name="Comment" data-svg-id="d23124eea8"><path fill="#1296db" d="M512 872.96c-11.776 0-22.528-6.144-28.672-16.384L416.256 742.4H191.488c-18.432 0-33.28-14.848-33.28-33.28V192.512c0-18.432 14.848-33.28 33.28-33.28h641.024c18.432 0 33.28 14.848 33.28 33.28V709.12c0 18.432-14.848 33.28-33.28 33.28H607.744l-67.072 114.176c-6.144 10.24-16.896 16.384-28.672 16.384zM224.768 675.84H435.2c11.776 0 22.528 6.144 28.672 16.384l47.616 81.408 47.616-81.408c6.144-10.24 16.896-16.384 28.672-16.384H798.72V225.792H224.768V675.84z"/><path fill="#1296db" d="M312.32 451.072a41.472 41.472 0 1 0 82.944 0 41.472 41.472 0 1 0-82.944 0zM472.06399999999996 451.072a41.472 41.472 0 1 0 82.944 0 41.472 41.472 0 1 0-82.944 0zM631.808 451.072a41.472 41.472 0 1 0 82.944 0 41.472 41.472 0 1 0-82.944 0z"/></svg><svg class="icon" width="32" height="32" viewBox="0 0 1024 1024" xmlns="http://www.w3.org/2000/svg" x="0" y="0" data-name="DownArrow" data-svg-id="03cbab985e"><path fill="#1296db" d="M863.232 432.128L548.864 746.496c-20.48 20.48-53.248 20.48-73.728 0L160.768 432.128C128 399.36 151.04 343.04 197.632 343.04h628.736c46.592 0 69.632 56.32 36.864 89.088z"/></svg><svg class="icon" width="32" height="32" viewBox="0 0 1024 1024" xmlns="http://www.w3.org/2000/svg" x="42" y="84" data-name="Download" data-svg-id="2654b5cd8a"><path fill="#1296db" d="M515.072 762.368c-15.36 0-30.72-5.632-42.496-17.408l-140.8-140.8c-12.8-12.8-12.8-34.304 0-47.104 12.8-12.8 34.304-12.8 47.104 0l136.192 136.192 136.192-136.192c12.8-12.8 34.304-12.8 47.104 0 12.8 12.8 12.8 34.304 0 47.104L558.08 744.448c-11.776 11.776-27.648 17.92-43.008 17.92z"/><path fill="#1296db" d="M516.096 760.832c-18.432 0-33.28-14.848-33.28-33.28l1.536-421.376c0-18.432 14.848-33.28 33.28-33.28s33.28 14.848 33.28 33.28l-1.536 421.376c0 18.432-14.848 33.28-33.28 33.28z"/><path fill="#1296db" d="M706.56 896.512H317.952c-89.6 0-162.304-72.704-162.304-162.304V301.056c-.512-89.6 72.704-162.816 162.304-162.816H706.56c89.6 0 162.304 72.704 162.304 162.304v433.152c0 90.112-72.704 162.816-162.304 162.816zM317.952 204.8c-52.736 0-95.744 43.008-95.744 95.744v433.152c0 52.736 43.008 95.744 95.744 95.744H706.56c52.736 0 95.744-43.008 95.744-95.744v-432.64c0-52.736-43.008-95.744-95.744-95.744H317.952z"/></svg><svg class="icon" width="32" height="32" viewBox="0 0 1024 1024" xmlns="http://www.w3.org/2000/svg" x="84" y="84" data-name="Filter" data-svg-id="891e1136a0"><path fill="#1296db" d="M621.056 880.64c-18.432 0-33.28-14.848-33.28-33.28V548.864c0-5.632 1.536-11.776 4.608-16.384l176.64-305.664h-517.12l176.64 305.664c3.072 5.12 4.608 10.752 4.608 16.384V847.36c0 18.432-14.848 33.28-33.28 33.28s-33.28-14.848-33.28-33.28V557.568L165.376 209.92c-6.144-10.24-6.144-23.04 0-33.28s16.896-16.384 28.672-16.384h631.808c11.776 0 23.04 6.144 28.672 16.384s6.144 23.04 0 33.28L653.824 557.568V847.36c.512 18.432-14.336 33.28-32.768 33.28z"/></svg><svg class="icon" width="32" height="32" viewBox="0 0 1024 1024" xmlns="http://www.w3.org/2000/svg" x="126" y="0" data-name="Group" data-svg-id="5b4b0287f6"><path fill="#1296db" d="M868.352 555.008c-40.448-28.672-109.056-77.312-129.536-91.136-1.024-3.072-2.048-10.24-.512-22.528 0-1.536 5.12-8.192 8.192-11.776 8.192-10.24 18.944-24.576 26.112-45.568 7.168-20.992 24.576-112.128-19.456-173.056-16.896-23.04-49.152-50.688-108.544-50.688-30.72 0-54.272 7.68-72.192 17.92 10.752 9.216 20.48 19.456 28.672 31.232 5.12 7.168 10.24 15.36 14.336 23.04 8.192-3.072 17.92-4.608 29.184-4.608 25.088 0 43.008 7.68 53.76 22.528 12.8 17.92 15.872 43.008 15.872 61.44.512 23.04-3.584 43.52-6.144 51.2-3.584 10.24-8.704 16.896-15.36 25.088-8.704 11.264-19.968 25.6-22.528 46.592-5.12 50.176 12.288 73.216 27.648 83.968 16.384 10.752 96.768 68.096 130.56 91.648 1.536 1.024 2.56 3.072 2.56 5.12v16.384c0 3.584-3.072 6.656-6.656 6.656h-87.04c20.48 17.408 47.616 41.472 53.76 67.584h34.304c40.96 0 73.728-33.28 73.728-73.728v-16.384c.512-24.576-11.264-47.104-30.72-60.928zm-198.144 302.08H207.36c-46.592 0-84.992-37.888-84.992-84.992v-20.992c0-27.648 13.312-53.248 35.84-69.12 53.76-37.888 145.92-103.424 167.936-118.784 1.536-2.56 5.12-13.824 2.56-36.352-.512-4.608-5.12-10.752-12.8-20.48-9.728-12.8-23.552-29.696-32.256-55.296-8.704-26.112-30.208-138.24 23.552-212.48 19.968-27.648 58.88-60.928 131.072-60.928 72.192 0 111.104 33.28 131.072 60.928 53.248 74.24 31.744 186.368 23.552 212.48-8.704 25.6-22.016 43.008-32.256 55.296-7.68 9.728-12.288 15.36-12.8 20.48-2.56 22.528 1.024 33.792 2.56 36.352 22.016 14.848 114.688 80.384 167.936 118.784 22.528 15.872 35.84 41.472 35.84 69.12v20.992c1.024 46.592-37.376 84.992-83.968 84.992zM438.784 244.736c-35.84 0-60.928 10.752-77.312 33.28-33.28 46.592-22.016 129.536-14.336 152.576 4.608 14.336 12.8 24.576 20.992 35.328 11.264 14.336 24.064 30.208 26.624 54.784 6.144 59.392-13.824 86.016-31.232 98.304-20.992 13.824-123.904 87.04-167.424 117.76-4.608 3.584-7.68 9.216-7.68 14.848v20.992a18.355 18.355 0 0 0 18.432 18.432h462.848a18.355 18.355 0 0 0 18.432-18.432v-20.992c0-6.144-3.072-11.264-7.68-14.848-43.52-30.72-146.432-103.936-167.424-117.76-17.92-11.776-37.376-38.4-31.232-98.304 2.56-24.064 15.36-40.448 26.624-54.784 8.192-10.752 16.384-20.48 20.992-35.328 7.68-23.04 19.456-105.984-14.336-152.576-15.36-22.528-40.448-33.28-76.288-33.28zm112.64 319.488zm-225.28 0z"/></svg><svg class="icon" width="32" height="32" viewBox="0 0 1024 1024" xmlns="http://www.w3.org/2000/svg" x="126" y="42" data-name="History" data-svg-id="657272ddf8"><path fill="#1296db" d="M513.024 152.064c-199.68 0-361.472 161.792-361.472 361.472 0 199.68 161.792 361.472 361.472 361.472 199.68 0 361.472-161.792 361.472-361.472 0-199.68-161.792-361.472-361.472-361.472zm0 660.992c-165.376 0-299.52-134.144-299.52-299.52s134.144-299.52 299.52-299.52 299.52 134.144 299.52 299.52c.512 165.376-133.632 299.52-299.52 299.52zm151.04-299.52h-120.32V332.8c0-16.384-13.312-30.208-30.208-30.208-16.384 0-30.208 13.312-30.208 30.208v210.944c0 16.384 13.312 30.208 30.208 30.208h150.528c16.384 0 30.208-13.312 30.208-30.208-.512-16.896-13.824-30.208-30.208-30.208z"/></svg><svg class="icon" width="32" height="32" viewBox="0 0 1024 1024" xmlns="http://www.w3.org/2000/svg" x="126" y="84" data-name="Info" data-svg-id="10c5a75e12"><path fill="#1296db" d="M834.56 252.928H189.44c-18.432 0-33.28-14.848-33.28-33.28s14.848-33.28 33.28-33.28h645.12c18.432 0 33.28 14.848 33.28 33.28s-14.848 33.28-33.28 33.28zm0 288.768H189.44c-18.432 0-33.28-14.848-33.28-33.28s14.848-33.28 33.28-33.28h645.12c18.432 0 33.28 14.848 33.28 33.28s-14.848 33.28-33.28 33.28zm0 288.256H189.44c-18.432 0-33.28-14.848-33.28-33.28s14.848-33.28 33.28-33.28h645.12c18.432 0 33.28 14.848 33.28 33.28s-14.848 33.28-33.28 33.28z"/></svg><svg class="icon" width="32" height="32" viewBox="0 0 1024 1024" xmlns="http://www.w3.org/2000/svg" x="0" y="126" data-name="Good" data-svg-id="39d0a0c1e0"><path fill="#1296db" d="M613.376 893.44H415.232c-40.96 0-77.312-20.48-99.328-51.712-9.728 4.608-20.48 6.656-31.744 6.656h-65.536c-42.496 0-77.312-34.816-77.312-77.312V463.36c0-42.496 34.816-77.312 77.312-77.312h66.048c11.776 0 22.528 2.56 32.256 7.168 6.144-8.192 13.312-15.872 21.504-22.528 48.128-49.664 66.048-129.024 66.048-170.496 0-36.864 33.792-61.952 82.432-61.952 27.648 0 54.272 8.192 75.264 23.552 26.624 19.456 40.96 48.64 40.96 82.432v98.816h142.848c67.072 0 121.344 54.272 121.344 121.344V640c-1.024 139.776-114.176 253.44-253.952 253.44zM360.96 780.288c4.096 26.624 26.624 46.592 54.272 46.592h198.144c102.912 0 186.88-83.968 186.88-186.88V463.872c0-30.208-24.576-54.784-54.784-54.784H569.344c-18.432 0-33.28-14.848-33.28-33.28V243.712c0-9.728-2.048-24.064-20.992-33.28-17.408-8.192-36.352-6.656-44.544-4.096-1.536 48.64-20.992 146.944-86.528 212.48-1.024 1.024-2.048 1.536-2.56 2.56-10.752 8.704-17.92 20.992-19.968 34.304.512 2.56.512 5.12.512 7.68v308.224c-.512 2.56-.512 5.632-1.024 8.704zm-142.336-327.68c-6.144 0-10.752 4.608-10.752 10.752v308.224c0 6.144 4.608 10.752 10.752 10.752h66.048c4.096 0 8.192-2.56 9.728-6.144v-317.44c-1.536-3.584-5.632-6.144-9.728-6.144h-66.048z"/></svg></svg>