<?xml version="1.0" encoding="utf-8"?><svg version="1.1" xmlns="http://www.w3.org/2000/svg" xmlns:xlink="http://www.w3.org/1999/xlink" width="96" height="92" id="b8bc4d86c7" data-total="11"><svg width="14" height="14" viewBox="0 0 14 14" xmlns="http://www.w3.org/2000/svg" x="50" y="50" data-name="AddMemberSmallGray"><title>场景图标/更多/协作成员+AddMemberSmallGray</title><path d="M1 11.968V12h10v-.032l-3.361-1.892c-.634-.318-1.074-1.03-1.074-1.712 0-.597.164-1.092.478-1.44a3.94 3.94 0 0 0 .827-2.379C7.87 3.1 6.98 2 6 2c-.98 0-1.87 1.099-1.87 2.545 0 .848.314 1.732.789 2.333.352.394.516.89.516 1.486 0 .682-.44 1.394-1.031 1.69L1 11.967zM11 7V5h1v2h2v1h-2v2h-1V8H9V7h2zM3.13 4.545C3.13 2.587 4.415 1 6 1c1.585 0 2.87 1.587 2.87 3.545 0 1.104-.41 2.202-1.044 3-.169.19-.26.44-.26.819 0 .29.214.664.521.818l3.391 1.909c.362.184.522.462.522.818v.546c0 .24-.292.545-.522.545H.783C.292 13 0 12.695 0 12.455v-.546c0-.356.16-.634.522-.818l3.391-1.91c.307-.153.522-.526.522-.817 0-.378-.092-.63-.261-.819a4.939 4.939 0 0 1-1.044-3z" fill-rule="nonzero" fill="#999"/></svg><svg width="10" height="6" viewBox="0 0 10 6" xmlns="http://www.w3.org/2000/svg" x="20" y="76" data-name="ArrowGrayDown6h"><title>图标-通用/箭头/下三角+ArrowGrayDown6h</title><path d="M8.846 0L10 1.125 5 6 0 1.125 1.154 0 5 3.75z" fill="#D9D9D9" fill-rule="evenodd"/></svg><svg width="8" height="13" viewBox="0 0 8 13" xmlns="http://www.w3.org/2000/svg" x="74" y="50" data-name="ArrowGrayRight13h"><title>图标-通用/箭头/右侧+ArrowGrayRight13h</title><path d="M0 1.5L1.5 0 8 6.5 1.5 13 0 11.5l5-5z" fill="#D9D9D9" fill-rule="evenodd"/></svg><svg width="10" height="6" viewBox="0 0 10 6" xmlns="http://www.w3.org/2000/svg" x="0" y="76" data-name="ArrowGrayUp6h"><title>图标-通用/箭头/上三角+ArrowGrayUp6h</title><path d="M8.846 6L10 4.875 5 0 0 4.875 1.154 6 5 2.25z" fill="#999" fill-rule="evenodd"/></svg><svg width="16" height="16" viewBox="0 0 16 16" xmlns="http://www.w3.org/2000/svg" x="0" y="50" data-name="ArrowLeftGray16h"><title>图标-场景/顶部功能栏/返回+ArrowLeftGray16h</title><path d="M13 1.2L11.75 0 3 8l8.75 8L13 14.8 5.5 8z" fill="#999" fill-rule="evenodd"/></svg><svg width="34" height="40" viewBox="0 0 34 40" xmlns="http://www.w3.org/2000/svg" x="0" y="0" data-name="BellBigGray"><title>图标-场景/为空/通知+BellBigGray</title><g fill="none" fill-rule="evenodd"><path d="M1 31.58V33h32v-1.42l-2.833-2.832V18.417c0-5.692-5.32-11.75-10.334-11.75h-1V2.833C18.833 1.723 18.11 1 17 1c-1.11 0-1.833.723-1.833 1.833v3.834h-1c-4.875 0-10.334 6.368-10.334 11.75v10.33L1 31.582z" stroke="#E6E6E6" stroke-width="2"/><path d="M11 34c0 3.317 2.683 6 6 6s6-2.683 6-6H11z" fill="#D9D9D9"/></g></svg><svg width="14" height="14" viewBox="0 0 14 14" xmlns="http://www.w3.org/2000/svg" x="70" y="26" data-name="BlueCheckboxHalf14h"><title>图标-通用/选择框/小复选框/有选择+BlueCheckboxHalf14h</title><g fill="none" fill-rule="evenodd"><rect fill="#328FFA" width="14" height="14" rx="2"/><rect fill="#FFF" x="3" y="6" width="8" height="2" rx="1"/></g></svg><svg width="14" height="14" viewBox="0 0 14 14" xmlns="http://www.w3.org/2000/svg" x="44" y="26" data-name="BlueCheckboxTrue14h"><title>图标-通用/选择框/小复选框/已选+BlueCheckboxTrue14h</title><g fill="none" fill-rule="evenodd"><rect fill="#328FFA" width="14" height="14" rx="2"/><path fill="#FFF" d="M5.278 8.89L10.76 3 12 4.237l-5.602 5.831.02.021-.908.907-.002-.002-.005.006-.196-.195L2 7.689l1.097-1.095z"/></g></svg><svg width="14" height="14" viewBox="0 0 14 14" xmlns="http://www.w3.org/2000/svg" xmlns:xlink="http://www.w3.org/1999/xlink" x="26" y="50" data-name="CheckboxFalse14h"><title>图标-通用/选择框/小复选框/普通+CheckboxFalse14h</title><defs><rect id="a" width="14" height="14" rx="2"/></defs><g fill="none" fill-rule="evenodd"><use fill="#FFF" xlink:href="#a"/><rect stroke="#CCC" x=".5" y=".5" width="13" height="13" rx="2"/></g></svg><svg width="16" height="16" viewBox="0 0 16 16" xmlns="http://www.w3.org/2000/svg" x="70" y="0" data-name="CloseGray16h"><title>图标-通用/X/弹出框-16+CloseGray16h</title><path d="M8 6.5L3.5 2 2 3.5 6.5 8 2 12.5 3.5 14 8 9.5l4.5 4.5 1.5-1.5L9.5 8 14 3.5 12.5 2z" fill="#999" fill-rule="evenodd"/></svg><svg width="16" height="16" viewBox="0 0 16 16" xmlns="http://www.w3.org/2000/svg" x="44" y="0" data-name="CrossSmallWhite"><title>场景图标/顶部功能栏/加号+CrossSmallWhite</title><path d="M7 7H1v2h6v6h2V9h6V7H9V1H7v6z" fill="#FFF" fill-rule="evenodd"/></svg></svg>