<?xml version="1.0" encoding="utf-8"?>
<svg version="1.1" xmlns="http://www.w3.org/2000/svg" xmlns:xlink="http://www.w3.org/1999/xlink" width="190"
     height="166">
    <svg width="14" height="14" viewBox="0 0 14 14" xmlns="http://www.w3.org/2000/svg" x="166" y="24">
        <title>场景图标/更多/下载+DownloadSmallGray</title>
        <path d="M6 8H4l3 4 3-4H8V0H6v8zm-6 5h14v1H0v-1z" fill="#999" fill-rule="evenodd"/>
    </svg>
    <svg width="14" height="14" viewBox="0 0 14 14" xmlns="http://www.w3.org/2000/svg" x="0" y="120">
        <title>通用图标/在线文档图标/表格-14+ExcelBlue14h</title>
        <g fill="none" fill-rule="evenodd">
            <rect fill-opacity=".6" fill="#346CFA" width="14" height="14" rx="2"/>
            <path fill="#FFF" d="M5 3h1v8H5z"/>
            <path fill="#FFF" d="M3 5h8v1H3z"/>
        </g>
    </svg>
    <svg width="14" height="14" viewBox="0 0 14 14" xmlns="http://www.w3.org/2000/svg" x="72" y="120">
        <title>通用图标/在线文档图标/表格-14+ExcelGreen14h</title>
        <g fill="none" fill-rule="evenodd">
            <rect fill="#7ED321" width="14" height="14" rx="2"/>
            <path fill="#FFF" d="M5 3h1v8H5z"/>
            <path fill="#FFF" d="M3 5h8v1H3z"/>
        </g>
    </svg>
    <svg width="14" height="14" viewBox="0 0 14 14" xmlns="http://www.w3.org/2000/svg" x="140" y="52">
        <title>图标-通用/感叹号+FailRed14h</title>
        <g fill="none" fill-rule="evenodd">
            <circle cx="7" cy="7" r="7" fill="#F23030" fill-opacity=".7"/>
            <path d="M7 2a1 1 0 0 1 1 1v5a1 1 0 1 1-2 0V3a1 1 0 0 1 1-1zm0 8a1 1 0 1 1 0 2 1 1 0 0 1 0-2z" fill="#FFF"/>
        </g>
    </svg>
    <svg width="40" height="40" viewBox="0 0 40 40" xmlns="http://www.w3.org/2000/svg" x="50" y="70">
        <title>图标-场景/添加协作人/部门+FolderBlue40h</title>
        <g fill="none" fill-rule="evenodd">
            <path d="M4 0h32a4 4 0 0 1 4 4v32a4 4 0 0 1-4 4H4a4 4 0 0 1-4-4V4a4 4 0 0 1 4-4z" fill-opacity=".8"
                  fill="#328FFA"/>
            <path
                d="M10 13v14a1 1 0 0 0 1 1h18a1 1 0 0 0 1-1V16a1 1 0 0 0-1-1h-9.778l-3.273-3H11a1 1 0 0 0-1 1zM8 28V12a2 2 0 0 1 2-2h6.727L20 13h10a2 2 0 0 1 2 2v13a2 2 0 0 1-2 2H10a2 2 0 0 1-2-2z"
                fill="#FFF" fill-rule="nonzero"/>
        </g>
    </svg>
    <svg width="14" height="14" viewBox="0 0 14 14" xmlns="http://www.w3.org/2000/svg" x="140" y="76">
        <title>通用图标/在线文档图标/导入+ImportSmallGray</title>
        <path d="M0 4h1v10H0V4zm1 9h12v1H1v-1zm12-9h1v10h-1V4zM4 7h6l-3 4-3-4zm2-7h2v7H6V0z" fill="#999"
              fill-rule="evenodd"/>
    </svg>
    <svg width="24" height="24" viewBox="0 0 24 24" xmlns="http://www.w3.org/2000/svg" x="100" y="70">
        <title>Logo/24+LogoBlue24h</title>
        <g fill="none" fill-rule="evenodd">
            <path d="M4 0h16a4 4 0 0 1 4 4v16a4 4 0 0 1-4 4H4a4 4 0 0 1-4-4V4a4 4 0 0 1 4-4z" fill="#328FFA"/>
            <path
                d="M6.456 14.853l2.98-5.948c.39.285.829.507 1.302.651L7.76 15.504c.38.392.613.926.613 1.514A2.184 2.184 0 0 1 6.186 19.2 2.184 2.184 0 0 1 4 17.018a2.184 2.184 0 0 1 2.456-2.165zm4.041 1.438h5.318a2.156 2.156 0 0 1 4.185.727 2.156 2.156 0 1 1-4.185.727h-5.318a4.385 4.385 0 0 0 0-1.454zm1.788-8.744A2.184 2.184 0 0 1 9.83 5.382c0-1.205.979-2.182 2.186-2.182 1.207 0 2.186.977 2.186 2.182 0 .588-.233 1.122-.612 1.514l2.979 5.948a4.36 4.36 0 0 0-1.303.65l-2.98-5.947z"
                fill="#FFF"/>
        </g>
    </svg>
    <svg width="60" height="60" viewBox="0 0 60 60" xmlns="http://www.w3.org/2000/svg" x="70" y="0">
        <title>场景图标/为空/文档列表为空+LogoGray60h</title>
        <path
            d="M9.21 43.698l11.173-22.303a16.35 16.35 0 0 0 4.886 2.442L14.098 46.138a8.147 8.147 0 0 1 2.297 5.68c0 4.519-3.67 8.182-8.198 8.182C3.67 60 0 56.337 0 51.818s3.67-8.182 8.197-8.182c.343 0 .681.021 1.013.062zm15.155 5.393h19.94a8.086 8.086 0 0 1 7.611-5.342c4.465 0 8.084 3.613 8.084 8.07 0 4.455-3.62 8.068-8.084 8.068a8.086 8.086 0 0 1-7.61-5.342h-19.94a16.444 16.444 0 0 0 0-5.454zM31.07 16.3c-.331.042-.67.063-1.012.063-4.528 0-8.198-3.663-8.198-8.182S25.53 0 30.057 0c4.527 0 8.197 3.663 8.197 8.182a8.147 8.147 0 0 1-2.297 5.68l11.172 22.301a16.35 16.35 0 0 0-4.887 2.442L31.07 16.302z"
            fill="#D9D9D9" fill-rule="evenodd"/>
    </svg>
    <svg width="16" height="12" viewBox="0 0 16 12" xmlns="http://www.w3.org/2000/svg" x="0" y="144">
        <title>通用图标/头像/12+MembersSmallGray</title>
        <g fill="#D9D9D9" fill-rule="evenodd">
            <path
                d="M3.13 3.545c0 1.104.41 2.202 1.044 3 .169.19.26.44.26.819 0 .29-.214.664-.521.818L.522 10.09c-.362.184-.522.462-.522.818v.546c0 .24.292.545.783.545h10.695c.23 0 .522-.305.522-.545v-.546c0-.356-.16-.634-.522-.818L8.087 8.18c-.307-.153-.522-.526-.522-.817 0-.378.092-.63.261-.819a4.939 4.939 0 0 0 1.044-3C8.87 1.587 7.585 0 6 0 4.415 0 3.13 1.587 3.13 3.545z"/>
            <path
                d="M13.927 11h1.682c.172 0 .391-.229.391-.41v-.408c0-.267-.12-.476-.391-.614l-2.544-1.432a.754.754 0 0 1-.391-.613c0-.284.069-.472.196-.614.475-.599.782-1.422.782-2.25C13.652 3.19 12.69 2 11.5 2S9.348 3.19 9.348 4.66c0 .827.307 1.65.782 2.25.127.14.196.33.196.613a.754.754 0 0 1-.391.613l-.255.144 3.58 2.015c.347.177.563.414.667.705z"/>
        </g>
    </svg>
    <svg width="16" height="16" viewBox="0 0 16 16" xmlns="http://www.w3.org/2000/svg" x="140" y="26">
        <title>场景图标/顶部功能栏/更多操作+MoreSmallGray</title>
        <path
            d="M2.5 10a1.5 1.5 0 1 1 0-3 1.5 1.5 0 0 1 0 3zm6 0a1.5 1.5 0 1 1 0-3 1.5 1.5 0 0 1 0 3zm6 0a1.5 1.5 0 1 1 0-3 1.5 1.5 0 0 1 0 3z"
            fill="#999" fill-rule="evenodd"/>
    </svg>
    <svg width="14" height="14" viewBox="0 0 14 14" xmlns="http://www.w3.org/2000/svg" x="24" y="120">
        <title>场景图标/更多/重命名+PencilSmallGray</title>
        <path
            d="M1 12h1.894l7.494-7.494-1.894-1.894L1 10.106V12zm10.852-8.959l-.924.924-1.893-1.893.924-.924a.503.503 0 0 1 .712 0l1.181 1.181a.503.503 0 0 1 0 .712zM1 12h12v1H1v-1z"
            fill="#999" fill-rule="evenodd"/>
    </svg>
    <svg width="14" height="14" viewBox="0 0 14 14" xmlns="http://www.w3.org/2000/svg" x="48" y="120">
        <title>图标/通用图标/搜索+SearchSmallGray</title>
        <path
            d="M13.743 12.574L9.91 8.74a5.426 5.426 0 0 0 1.05-3.232A5.532 5.532 0 0 0 5.46 0 5.436 5.436 0 0 0 0 5.468a5.532 5.532 0 0 0 5.5 5.508 5.408 5.408 0 0 0 3.242-1.061l.004-.003 3.83 3.831a.826.826 0 1 0 1.167-1.169zM5.516 10A4.54 4.54 0 0 1 1 5.484a4.455 4.455 0 0 1 1.305-3.176A4.468 4.468 0 0 1 5.484 1 4.54 4.54 0 0 1 10 5.516a4.455 4.455 0 0 1-1.305 3.176A4.468 4.468 0 0 1 5.516 10z"
            fill="#999" fill-rule="evenodd"/>
    </svg>
    <svg width="16" height="16" viewBox="0 0 16 16" xmlns="http://www.w3.org/2000/svg" x="140" y="0">
        <title>图标-通用对勾/权限选中+SuccBlue16h</title>
        <path d="M2.45 6.496L1 7.87l5.086 4.87L15 4.373 13.55 3 6.086 9.991z" fill="#328FFA" fill-rule="evenodd"/>
    </svg>
    <svg width="14" height="14" viewBox="0 0 14 14" xmlns="http://www.w3.org/2000/svg" x="96" y="120">
        <title>图标-通用/对勾/提示栏+SuccGreen14h</title>
        <g fill="none" fill-rule="evenodd">
            <circle fill="#7ED321" cx="7" cy="7" r="7"/>
            <path fill="#FFF" d="M3.19 6.363L2 7.492 5.678 11 12 5.129 10.81 4 5.677 8.743z"/>
        </g>
    </svg>
    <svg width="14" height="14" viewBox="0 0 14 14" xmlns="http://www.w3.org/2000/svg" x="120" y="120">
        <title>场景图标/更多/删除+TrashSmallGray</title>
        <path d="M6 1h2v2H6V1zM1 3h12v1H1V3zm2 2h8v8H3V5zm1 1v6h6V6H4z" fill="#999" fill-rule="evenodd"/>
    </svg>
    <svg width="14" height="14" viewBox="0 0 14 14" xmlns="http://www.w3.org/2000/svg" x="166" y="0">
        <title>通用图标/在线文档图标/文档-14+WordBlue14h</title>
        <g fill="none" fill-rule="evenodd">
            <rect fill-opacity=".8" fill="#348FFA" width="14" height="14" rx="2"/>
            <path fill="#FFF" d="M3 3h8v1H3zM3 6h8v1H3zM3 9h5v1H3z"/>
        </g>
    </svg>
    <svg width="40" height="40" viewBox="0 0 40 40" xmlns="http://www.w3.org/2000/svg" x="0" y="70">
        <title>通用图标/在线文档图标/文档-40+WordBlue40h</title>
        <g fill="none" fill-rule="evenodd">
            <rect fill-opacity=".8" fill="#348FFA" width="40" height="40" rx="4"/>
            <path d="M8 8h24v2H8V8zm0 11h24v2H8v-2zm0 11h16v2H8v-2z" fill="#FFF"/>
        </g>
    </svg>
    <svg width="60" height="60" viewBox="0 0 60 60" xmlns="http://www.w3.org/2000/svg" x="0" y="0">
        <title>通用图标/在线文档图标/文档-60+WordBlue60h</title>
        <g fill="none" fill-rule="evenodd">
            <rect fill-opacity=".8" fill="#348FFA" width="60" height="60" rx="8"/>
            <path d="M12 12h36v3H12v-3zm0 16h36v3H12v-3zm0 17h24v3H12v-3z" fill="#FFF"/>
        </g>
    </svg>
</svg>
