<?xml version="1.0" encoding="utf-8"?><svg version="1.1" xmlns="http://www.w3.org/2000/svg" width="210" height="168" data-sprite-id="acaf2466568bcd421451cd7ba13f04b1" data-total="19"><svg class="icon" width="32" height="32" viewBox="0 0 1024 1024" xmlns="http://www.w3.org/2000/svg" x="42" y="0" data-name="LeftArrow" data-svg-id="b67bd214ee"><path fill="#1296db" d="M266.854 511.508l351.171-351.17 49.239 49.234-351.18 351.176z"/><path fill="#1296db" d="M266.716 511.094l49.24-49.24 351.17 351.176-49.234 49.234z"/></svg><svg class="icon" width="32" height="32" viewBox="0 0 1024 1024" xmlns="http://www.w3.org/2000/svg" x="126" y="0" data-name="Link" data-svg-id="401664d9f8"><path fill="#1296db" d="M329.216 860.16c-42.496 0-84.48-15.872-116.736-48.128-31.232-31.232-48.128-72.704-48.128-116.736 0-44.032 16.896-86.016 48.128-116.736l125.44-125.952c31.232-31.232 72.704-48.128 116.736-48.128 44.032 0 85.504 16.896 116.736 48.128 12.288 12.288 12.288 32.256 0 44.544-12.288 12.288-32.256 12.288-44.544 0-19.456-19.456-45.056-29.696-72.192-29.696s-53.248 10.752-72.192 29.696l-125.44 125.44c-39.936 39.936-39.936 104.96 0 144.896 19.456 19.456 45.056 29.696 72.192 29.696 27.648 0 53.248-10.752 72.192-29.696l125.44-125.44c12.288-12.288 32.256-12.288 44.544 0 12.288 12.288 12.288 32.256 0 44.544l-125.44 125.44c-32.256 32.256-74.752 48.128-116.736 48.128zM686.08 571.392l125.44-125.44c64.512-64.512 64.512-169.472 0-233.984s-169.472-64.512-233.984 0L452.608 337.92c-12.288 12.288-12.288 32.256 0 44.544 12.288 12.288 32.256 12.288 44.544 0l125.44-125.44c19.456-19.456 45.056-29.696 72.192-29.696 27.648 0 53.248 10.752 72.192 29.696 39.936 39.936 39.936 104.96 0 144.896l-125.44 125.44c-39.936 39.936-104.96 39.936-144.896 0-12.288-12.288-32.256-12.288-44.544 0-12.288 12.288-12.288 32.256 0 44.544 32.256 32.256 74.752 48.128 116.736 48.128s84.992-16.384 117.248-48.64z"/></svg><svg class="icon" width="32" height="32" viewBox="0 0 1024 1024" xmlns="http://www.w3.org/2000/svg" x="0" y="42" data-name="Mail" data-svg-id="aca272a25a"><path fill="#1296db" d="M771.584 835.584H250.368c-62.976 0-114.176-51.2-114.176-114.176V330.24c0-62.976 51.2-114.176 114.176-114.176h521.216c62.976 0 114.176 51.2 114.176 114.176v391.168c0 62.976-51.2 114.176-114.176 114.176zm-521.216-552.96c-26.112 0-47.616 21.504-47.616 47.616v391.168c0 26.112 21.504 47.616 47.616 47.616h521.216c26.112 0 47.616-21.504 47.616-47.616V330.24c0-26.112-21.504-47.616-47.616-47.616H250.368z"/><path fill="#1296db" d="M510.976 540.672c-26.624 0-53.248-8.704-74.752-26.112L163.84 293.888l41.984-51.712 272.384 220.16c18.944 15.36 47.104 15.36 66.048 0l272.384-220.16 41.984 51.712-272.384 220.16c-22.016 17.92-48.64 26.624-75.264 26.624z"/></svg><svg class="icon" width="32" height="32" viewBox="0 0 1024 1024" xmlns="http://www.w3.org/2000/svg" x="42" y="42" data-name="More" data-svg-id="bf7b727f64"><path fill="#1296db" d="M157.696 510.976a60.416 60.416 0 1 0 120.832 0 60.416 60.416 0 1 0-120.832 0zM450.56 510.976a60.416 60.416 0 1 0 120.832 0 60.416 60.416 0 1 0-120.832 0zM742.912 510.976a60.416 60.416 0 1 0 120.832 0 60.416 60.416 0 1 0-120.832 0z"/></svg><svg class="icon" width="32" height="32" viewBox="0 0 1024 1024" xmlns="http://www.w3.org/2000/svg" x="84" y="0" data-name="Notice" data-svg-id="a46ae89dde"><path fill="#1296db" d="M516.096 902.144c-83.456 0-151.552-65.536-155.648-147.968h-128c-51.2 0-92.672-41.472-92.672-92.672 0-43.008 29.184-79.36 69.12-89.6v-174.08C208.384 248.832 342.016 128 506.88 128c164.352 0 298.496 120.832 298.496 269.824v173.568c39.424 10.752 69.12 46.592 69.12 89.6 0 51.2-41.472 92.672-92.672 92.672H672.768c-5.12 82.432-73.216 148.48-156.672 148.48zm-89.088-148.48c4.096 45.568 42.496 81.408 89.088 81.408s84.992-35.84 89.088-81.408H427.008zM232.448 634.88c-14.336 0-26.112 11.776-26.112 26.112s11.776 26.112 26.112 26.112H780.8c14.336 0 26.112-11.776 26.112-26.112S795.136 634.88 780.8 634.88h-9.216c-18.432 0-33.28-14.848-33.28-33.28V397.824c0-112.128-103.936-203.264-231.424-203.264s-231.936 91.136-231.936 203.264V601.6c0 18.432-14.848 33.28-33.28 33.28h-9.216z"/></svg><svg class="icon" width="32" height="32" viewBox="0 0 1024 1024" xmlns="http://www.w3.org/2000/svg" x="84" y="42" data-name="Pic" data-svg-id="51112d4120"><path fill="#1296db" d="M782.336 848.896h-542.72c-49.664 0-90.112-40.448-90.112-90.112V282.112c0-49.664 40.448-90.112 90.112-90.112h542.72c49.664 0 90.112 40.448 90.112 90.112v476.672c0 49.664-40.448 90.112-90.112 90.112zM239.616 258.56c-12.8 0-23.552 10.752-23.552 23.552v476.672c0 12.8 10.752 23.552 23.552 23.552h542.72c12.8 0 23.552-10.752 23.552-23.552V282.112c0-12.8-10.752-23.552-23.552-23.552h-542.72z"/><path fill="#1296db" d="M313.344 413.184a53.248 53.248 0 1 0 106.496 0 53.248 53.248 0 1 0-106.496 0zM270.848 840.704c-8.704 0-17.92-3.584-24.576-10.752-12.288-13.312-11.776-34.304 1.536-47.104l356.864-331.776c12.288-11.776 31.744-11.776 44.544-1.024l202.752 175.104c13.824 11.776 15.36 33.28 3.584 47.104-11.776 13.824-32.768 15.36-47.104 3.584L628.224 520.192 293.376 831.488c-6.144 6.144-14.336 9.216-22.528 9.216z"/></svg><svg class="icon" width="32" height="32" viewBox="0 0 1024 1024" xmlns="http://www.w3.org/2000/svg" x="0" y="84" data-name="Plus" data-svg-id="f0fc4d63a0"><path fill="#1296db" d="M830.464 543.744H192c-18.432 0-33.28-14.848-33.28-33.28s14.848-33.28 33.28-33.28h638.976c18.432 0 33.28 14.848 33.28 33.28s-15.36 33.28-33.792 33.28z"/><path fill="#1296db" d="M511.488 863.232c-18.432 0-33.28-14.848-33.28-33.28V191.488c0-18.432 14.848-33.28 33.28-33.28s33.28 14.848 33.28 33.28v638.976c0 17.92-14.848 32.768-33.28 32.768z"/></svg><svg class="icon" width="32" height="32" viewBox="0 0 1024 1024" xmlns="http://www.w3.org/2000/svg" x="42" y="84" data-name="QRCode" data-svg-id="347b83b50d"><path fill="#1296db" d="M166.4 166.4v321.024h321.024V166.4H166.4zm257.024 256.512H230.912v-192h192.512v192zm-55.296-54.784h-82.432v-82.432h82.432v82.432zM166.4 532.48v321.024h321.024V532.48H166.4zm257.024 256.512H230.912V596.48h192.512v192.512zm-55.296-54.784h-82.432v-82.432h82.432v82.432zm245.76-121.856h-79.872V532.48h79.872v79.872zm79.872 80.384h-79.872v-79.872h79.872v79.872zm160.768-80.384h-79.872V532.48h79.872v79.872zm-80.896 240.64H693.76V773.12h79.872v79.872zm-159.744-80.384h-79.872v-79.872h79.872v79.872zm240.64 0H693.76v-79.872h160.768v79.872zM533.504 166.4v321.024h321.024V166.4H533.504zm256.512 256.512H597.504v-192h192.512v192zm-54.784-54.784H652.8v-82.432h82.432v82.432z"/></svg><svg class="icon" width="32" height="32" viewBox="0 0 1024 1024" xmlns="http://www.w3.org/2000/svg" x="84" y="84" data-name="Radio" data-svg-id="6eb8aba536"><path fill="#1296db" d="M382.976 811.52c-8.704 0-17.408-3.584-23.552-9.728l-207.36-207.36c-12.8-12.8-12.8-34.304 0-47.104 12.8-12.8 34.304-12.8 47.104 0l183.808 183.808 440.832-440.832c12.8-12.8 34.304-12.8 47.104 0 12.8 12.8 12.8 34.304 0 47.104L406.528 801.792c-6.144 6.656-14.848 9.728-23.552 9.728z"/></svg><svg class="icon" width="32" height="32" viewBox="0 0 1024 1024" xmlns="http://www.w3.org/2000/svg" x="0" y="0" data-name="RightArrow" data-svg-id="c90f7e8e2f"><path fill="#1296db" d="M375.818 813.164l351.176-351.171 49.234 49.234-351.17 351.176z"/><path fill="#1296db" d="M375.951 209.684l49.24-49.239 351.175 351.176-49.239 49.234z"/></svg><svg class="icon" width="32" height="32" viewBox="0 0 1024 1024" xmlns="http://www.w3.org/2000/svg" x="126" y="42" data-name="Search" data-svg-id="68528387e1"><path fill="#1296db" d="M463.36 781.312c-179.2 0-325.12-141.824-325.12-316.416S284.16 148.48 463.36 148.48s325.12 141.824 325.12 316.416c0 81.92-31.744 159.232-89.6 218.624-61.952 62.976-145.408 97.792-235.52 97.792zm0-566.272c-142.336 0-258.56 112.128-258.56 249.856s116.224 249.856 258.56 249.856c71.68 0 138.24-27.648 187.904-78.336 45.568-46.592 70.656-107.52 70.656-172.032 0-137.216-115.712-249.344-258.56-249.344z"/><path fill="#1296db" d="M835.072 867.328c-8.704 0-16.896-3.072-23.552-9.728L651.264 697.344c-12.8-12.8-12.8-34.304 0-47.104 12.8-12.8 34.304-12.8 47.104 0l160.256 160.256c12.8 12.8 12.8 34.304 0 47.104-6.656 6.144-14.848 9.728-23.552 9.728z"/></svg><svg class="icon" width="32" height="32" viewBox="0 0 1024 1024" xmlns="http://www.w3.org/2000/svg" x="126" y="84" data-name="Setting" data-svg-id="4ae292a319"><path fill="#1296db" d="M512 633.344c-67.072 0-121.344-54.272-121.344-121.344S444.928 390.656 512 390.656 633.344 444.928 633.344 512 579.072 633.344 512 633.344zm0-176.128c-30.208 0-54.784 24.576-54.784 54.784s24.576 54.784 54.784 54.784 54.784-24.576 54.784-54.784-24.576-54.784-54.784-54.784zm9.728 455.168h-11.776c-39.424 0-75.264-26.624-86.528-64.512-2.048-7.168-7.68-13.312-15.36-15.872-13.824-4.608-27.648-10.24-40.96-16.896-7.168-3.584-14.848-3.072-21.504.512l-3.072 1.536c-34.816 18.944-78.848 12.8-107.008-15.36l-8.192-8.192c-28.16-28.16-34.304-72.192-15.36-107.008l2.048-4.096c3.584-6.656 3.584-14.848.512-22.016-5.632-11.264-10.752-23.552-14.848-35.328-2.56-7.168-8.192-12.8-15.36-14.848l-7.68-2.048c-37.888-11.264-64.512-46.592-64.512-86.528v-11.776c0-39.424 26.624-75.264 64.512-86.528l5.12-1.536c7.68-2.048 13.312-8.192 15.872-15.872 4.096-12.288 8.704-24.064 13.824-35.84 3.072-6.656 3.072-14.848-.512-20.992l-3.584-6.656c-18.944-34.816-12.8-78.848 15.36-107.008l8.192-8.192c28.16-28.16 71.68-34.304 107.008-15.36 7.168 4.096 15.872 4.096 23.552 0 12.8-6.656 26.112-12.8 39.936-17.408 7.168-2.56 12.288-8.192 14.336-15.36l1.024-3.072c11.264-37.888 46.592-64.512 86.528-64.512h11.776c39.424 0 75.264 26.624 86.528 64.512 2.048 7.168 7.68 13.312 15.36 15.872 13.824 4.608 27.648 10.24 40.96 16.896 7.168 3.584 14.848 3.072 21.504-.512l3.072-1.536c34.816-18.944 78.848-12.8 107.008 15.36l8.192 8.192c28.16 28.16 34.304 72.192 15.36 107.008l-2.048 4.096c-3.584 6.656-3.584 14.848-.512 22.016 5.632 11.264 10.752 23.552 14.848 35.328 2.56 7.168 8.192 12.8 15.36 14.848l7.68 2.048c37.888 11.264 64.512 46.592 64.512 86.528v11.776c0 39.424-26.624 75.264-64.512 86.528l-5.12 1.536c-7.68 2.048-13.312 8.192-15.872 15.872-4.096 12.288-8.704 24.064-13.824 35.84-3.072 6.656-3.072 14.848.512 20.992l3.584 6.656c18.944 34.816 12.8 78.848-15.36 107.008l-8.192 8.192c-28.16 28.16-72.192 34.304-107.008 15.36-7.168-4.096-15.872-4.096-23.552 0-12.8 6.656-26.112 12.8-39.936 17.408-6.656 2.56-12.288 8.192-14.336 15.36l-1.024 3.072c-11.264 37.888-47.104 64.512-86.528 64.512zm-164.864-166.4c13.824 0 27.136 3.072 39.936 9.216 10.24 5.12 21.504 9.728 32.256 13.312 28.16 9.216 49.664 31.744 57.856 59.904 3.072 9.728 12.288 16.896 22.528 16.896h11.776c10.24 0 19.456-7.168 22.528-16.896l1.024-3.072c8.192-27.136 28.672-49.664 55.296-59.392 10.752-4.096 21.504-8.704 31.744-13.824 27.136-14.336 59.392-13.824 86.016.512 9.216 5.12 20.992 3.584 28.16-4.096l8.192-8.192c7.168-7.168 9.216-18.944 4.096-27.648l-3.584-6.656c-13.312-24.576-14.336-54.784-2.56-80.896 4.096-9.216 8.192-18.944 11.264-28.672 9.216-28.672 31.744-50.688 60.416-58.88l5.12-1.536c9.728-3.072 16.896-12.288 16.896-22.528V501.76c0-10.24-7.168-19.456-16.896-22.528l-7.68-2.048c-27.648-8.192-50.176-29.184-59.392-56.832-3.584-9.728-7.168-19.456-11.776-28.672-12.8-26.112-12.288-57.344 1.536-82.944l2.048-4.096c5.12-9.216 3.072-20.48-4.096-27.648l-8.192-8.192c-7.168-7.168-18.944-9.216-27.648-4.096l-3.072 1.536c-25.6 13.824-56.832 14.336-82.944 1.536-10.24-5.12-21.504-9.728-32.256-13.312-28.16-9.216-49.664-31.744-57.856-59.904-3.072-9.728-12.288-16.896-22.528-16.896h-11.776c-10.24 0-19.456 7.168-22.528 16.896l-1.024 3.072c-8.704 27.648-29.696 49.664-56.32 59.392-10.752 4.096-21.504 8.704-31.744 13.824-27.136 14.336-59.392 13.824-86.016-.512-9.216-5.12-20.992-3.584-28.16 4.096l-8.192 8.192c-7.168 7.168-9.216 18.944-4.096 27.648l3.584 6.656c13.312 24.576 14.336 54.784 2.56 80.384-4.096 9.216-8.192 18.944-11.264 28.672-9.216 28.672-31.744 50.688-60.416 58.88l-5.12 1.536c-9.728 3.072-16.896 12.288-16.896 22.528v11.776c0 10.24 7.168 19.456 16.896 22.528l7.68 2.048c27.648 8.192 49.664 29.184 59.392 56.832 3.584 9.728 7.168 19.456 11.776 28.672 12.8 26.112 12.288 57.344-1.536 82.944l-2.048 4.096c-5.12 9.216-3.072 20.48 4.096 27.648l8.192 8.192c7.168 7.168 18.944 9.216 27.648 4.096l3.072-1.536c14.336-6.144 29.184-10.24 44.032-10.24z"/></svg><svg class="icon" width="32" height="32" viewBox="0 0 1024 1024" xmlns="http://www.w3.org/2000/svg" x="0" y="126" data-name="Share" data-svg-id="a823413624"><path fill="#1296db" d="M699.392 894.976H318.976c-80.384 0-145.92-65.536-145.92-145.92V573.44c0-80.384 65.536-145.92 145.92-145.92h380.416c80.384 0 145.92 65.536 145.92 145.92v175.616c-.512 80.384-65.536 145.92-145.92 145.92zM318.976 494.08c-43.52 0-79.36 35.328-79.36 79.36v175.616c0 43.52 35.328 79.36 79.36 79.36h380.416c43.52 0 79.36-35.328 79.36-79.36V573.44c0-43.52-35.328-79.36-79.36-79.36H318.976zm367.616-154.112c-8.704 0-16.896-3.072-23.552-9.728L508.928 176.128l-153.6 154.112c-12.8 12.8-34.304 12.8-47.104 0-12.8-12.8-12.8-34.304 0-47.104l156.16-156.16c11.776-11.776 27.648-18.432 44.544-18.432s32.768 6.656 44.544 18.432l156.16 156.16c12.8 12.8 12.8 34.304 0 47.104-6.144 6.656-14.848 9.728-23.04 9.728z"/><path fill="#1296db" d="M506.88 705.536s-.512 0 0 0c-18.432 0-33.28-14.848-33.28-33.28l1.536-527.872c0-18.432 14.848-33.28 33.28-33.28s33.28 14.848 33.28 33.28l-1.536 527.872c-.512 18.944-15.36 33.28-33.28 33.28z"/></svg><svg class="icon" width="32" height="32" viewBox="0 0 1024 1024" xmlns="http://www.w3.org/2000/svg" x="42" y="126" data-name="Tag" data-svg-id="dbf4e64341"><path fill="#1296db" d="M401.92 852.48h-5.12c-20.48-1.536-39.936-10.24-54.784-25.088L190.464 675.84c-14.848-14.848-24.064-34.304-25.088-54.784-1.536-21.504 6.144-42.496 20.992-57.344l369.664-369.664c14.336-14.336 34.816-22.016 56.32-20.992l144.384 7.168c43.008 2.048 79.36 38.912 81.408 81.408l7.168 144.384c1.024 20.992-6.656 41.472-20.992 56.32L454.656 832c-14.336 12.8-32.768 20.48-52.736 20.48zm205.824-613.376c-2.048 0-4.096.512-5.12 1.536L232.96 610.304c-1.536 1.536-1.536 4.608-1.536 6.144.512 4.096 2.56 8.704 6.144 12.288l151.552 151.04c3.584 3.584 8.192 5.632 12.288 6.144 1.536 0 4.096 0 6.144-1.536L776.704 414.72c1.024-1.024 1.536-3.072 1.536-5.632l-7.168-144.384c-.512-9.216-9.216-17.92-18.432-18.432l-144.384-7.168h-.512z"/><path fill="#1296db" d="M590.336 376.32a50.688 50.688 0 1 0 101.376 0 50.688 50.688 0 1 0-101.376 0z"/></svg><svg class="icon" width="32" height="32" viewBox="0 0 1024 1024" xmlns="http://www.w3.org/2000/svg" x="84" y="126" data-name="Top" data-svg-id="1a7957a805"><path fill="#1296db" d="M820.736 230.4H201.728c-18.432 0-33.28-14.848-33.28-33.28s14.848-33.28 33.28-33.28h619.008c18.432 0 33.28 14.848 33.28 33.28s-14.848 33.28-33.28 33.28zM511.488 878.08c-18.432 0-33.28-14.848-33.28-33.28V368.128c0-18.432 14.848-33.28 33.28-33.28s33.28 14.848 33.28 33.28V844.8c0 18.432-14.848 33.28-33.28 33.28z"/><path fill="#1296db" d="M673.28 549.376c-8.704 0-16.896-3.072-23.552-9.728l-138.24-138.24-138.24 138.24c-12.8 12.8-34.304 12.8-47.104 0-12.8-12.8-12.8-34.304 0-47.104l161.792-161.792c12.8-12.8 34.304-12.8 47.104 0l161.792 161.792c12.8 12.8 12.8 34.304 0 47.104-6.656 6.144-14.848 9.728-23.552 9.728z"/></svg><svg class="icon" width="32" height="32" viewBox="0 0 1024 1024" xmlns="http://www.w3.org/2000/svg" x="126" y="126" data-name="TopArrow" data-svg-id="81dffb8505"><path fill="#1296db" d="M828.416 715.776c-8.704 0-16.896-3.072-23.552-9.728l-293.888-294.4-293.888 293.888c-12.8 12.8-34.304 12.8-47.104 0-12.8-12.8-12.8-34.304 0-47.104l317.44-317.44c12.8-12.8 34.304-12.8 47.104 0l317.44 317.44c12.8 12.8 12.8 34.304 0 47.104-6.656 6.656-15.36 10.24-23.552 10.24z"/></svg><svg class="icon" width="32" height="32" viewBox="0 0 1024 1024" xmlns="http://www.w3.org/2000/svg" x="168" y="0" data-name="Video" data-svg-id="b8ba847a9a"><path fill="#1296db" d="M801.792 844.8H221.696c-38.912 0-71.168-31.744-71.168-71.168V382.464c0-38.912 31.744-71.168 71.168-71.168h88.576a4.589 4.589 0 0 0 4.608-4.608v-56.32c0-38.912 31.744-71.168 71.168-71.168h252.416c38.912 0 71.168 31.744 71.168 71.168V307.2a4.589 4.589 0 0 0 4.608 4.608h88.576c38.912 0 71.168 31.744 71.168 71.168v391.168c-1.024 38.912-32.768 70.656-72.192 70.656zM221.696 378.368a4.589 4.589 0 0 0-4.608 4.608v391.168a4.589 4.589 0 0 0 4.608 4.608h580.608a4.589 4.589 0 0 0 4.608-4.608v-391.68a4.589 4.589 0 0 0-4.608-4.608h-88.576c-38.912 0-71.168-31.744-71.168-71.168v-56.32a4.589 4.589 0 0 0-4.608-4.608H385.536a4.589 4.589 0 0 0-4.608 4.608V307.2c0 38.912-31.744 71.168-71.168 71.168h-88.064zm288.768 350.72c-92.672 0-167.936-75.264-167.936-167.936 0-92.672 75.264-167.936 167.936-167.936 92.672 0 167.936 75.264 167.936 167.936 0 92.672-75.264 167.936-167.936 167.936zm0-269.312c-55.808 0-101.376 45.568-101.376 101.376s45.568 101.376 101.376 101.376S611.84 616.96 611.84 561.152s-45.568-101.376-101.376-101.376z"/></svg><svg class="icon" width="32" height="32" viewBox="0 0 1024 1024" xmlns="http://www.w3.org/2000/svg" x="168" y="42" data-name="Voice" data-svg-id="e26b555371"><path fill="#1296db" d="M506.368 667.648c-76.8 0-139.776-62.464-139.776-139.776V286.208c0-76.8 62.464-139.776 139.776-139.776s139.776 62.464 139.776 139.776v241.664c0 76.8-62.976 139.776-139.776 139.776zm0-454.656c-40.448 0-73.216 32.768-73.216 73.216v241.664c0 40.448 32.768 73.216 73.216 73.216s73.216-32.768 73.216-73.216V286.208c0-40.448-32.768-73.216-73.216-73.216zm1.536 670.72c-18.432 0-33.28-14.848-33.28-33.28v-76.288c0-18.432 14.848-33.28 33.28-33.28s33.28 14.848 33.28 33.28v76.288c0 18.432-14.848 33.28-33.28 33.28z"/><path fill="#1296db" d="M508.416 803.84c-155.648 0-282.624-126.464-282.624-282.624 0-18.432 14.848-33.28 33.28-33.28s33.28 14.848 33.28 33.28c0 119.296 96.768 216.064 216.064 216.064 119.296 0 216.064-96.768 216.064-216.064 0-18.432 14.848-33.28 33.28-33.28s33.28 14.848 33.28 33.28c0 156.16-126.464 282.624-282.624 282.624z"/></svg><svg class="icon" width="32" height="32" viewBox="0 0 1024 1024" xmlns="http://www.w3.org/2000/svg" x="168" y="84" data-name="Wallet" data-svg-id="7ea8a7baad"><path fill="#1296db" d="M865.28 675.84v46.08c0 50.688-41.472 92.16-92.16 92.16H250.88c-50.688 0-92.16-41.472-92.16-92.16V291.84c0-50.688 41.472-92.16 92.16-92.16h522.24c50.688 0 92.16 41.472 92.16 92.16v46.08H419.84c-50.688 0-92.16 41.472-92.16 92.16v153.6c0 50.688 41.472 92.16 92.16 92.16h445.44zm0-276.48V614.4H419.84c-16.896 0-30.72-13.824-30.72-30.72v-153.6c0-16.896 13.824-30.72 30.72-30.72h445.44zM542.72 506.88c0-25.6-20.48-46.08-46.08-46.08s-46.08 20.48-46.08 46.08c0 25.088 20.48 46.08 46.08 46.08s46.08-20.992 46.08-46.08z"/></svg></svg>