<?xml version="1.0" encoding="UTF-8" standalone="no"?>
<svg width="14px" height="14px" viewBox="0 0 14 14" version="1.1" xmlns="http://www.w3.org/2000/svg" xmlns:xlink="http://www.w3.org/1999/xlink">
    <!-- Generator: Sketch 48.2 (47327) - http://www.bohemiancoding.com/sketch -->
    <title>图标-通用/感叹号+FailRed14h</title>
    <desc>Created with Sketch.</desc>
    <defs></defs>
    <g id="Symbols" stroke="none" stroke-width="1" fill="none" fill-rule="evenodd">
        <g id="图标-通用/感叹号+FailRed14h">
            <g id="通用图标/对勾/提示栏" fill="#F23030" fill-opacity="0.7">
                <circle id="bg" cx="7" cy="7" r="7"></circle>
            </g>
            <path d="M7,2 C7.55228475,2 8,2.44771525 8,3 L8,8 C8,8.55228475 7.55228475,9 7,9 C6.44771525,9 6,8.55228475 6,8 L6,3 C6,2.44771525 6.44771525,2 7,2 Z M7,10 C7.55228475,10 8,10.4477153 8,11 C8,11.5522847 7.55228475,12 7,12 C6.44771525,12 6,11.5522847 6,11 C6,10.4477153 6.44771525,10 7,10 Z" id="Combined-Shape" fill="#FFFFFF"></path>
        </g>
    </g>
</svg>