<?xml version="1.0" encoding="UTF-8" standalone="no"?>
<svg width="40px" height="40px" viewBox="0 0 40 40" version="1.1" xmlns="http://www.w3.org/2000/svg" xmlns:xlink="http://www.w3.org/1999/xlink">
    <!-- Generator: Sketch 48.2 (47327) - http://www.bohemiancoding.com/sketch -->
    <title>图标-场景/添加协作人/部门+FolderBlue40h</title>
    <desc>Created with Sketch.</desc>
    <defs></defs>
    <g id="AAB" stroke="none" stroke-width="1" fill="none" fill-rule="evenodd" transform="translate(-312.000000, -103.000000)">
        <g id="图标-场景/添加协作人/部门" transform="translate(312.000000, 103.000000)">
            <g id="图标/通用图标/链接">
                <path d="M4,0 L36,0 C38.209139,-4.05812251e-16 40,1.790861 40,4 L40,36 C40,38.209139 38.209139,40 36,40 L4,40 C1.790861,40 2.705415e-16,38.209139 0,36 L0,4 C-2.705415e-16,1.790861 1.790861,4.05812251e-16 4,0 Z" id="bg" fill-opacity="0.8" fill="#328FFA"></path>
                <path d="M10,13 L10,27 C10,27.5522847 10.4477153,28 11,28 L29,28 C29.5522847,28 30,27.5522847 30,27 L30,16 C30,15.4477153 29.5522847,15 29,15 L19.2220326,15 L15.9493053,12 L11,12 C10.4477153,12 10,12.4477153 10,13 Z M8,28 L8,12 C8,10.8954305 8.8954305,10 10,10 L16.7272727,10 L20,13 L30,13 C31.1045695,13 32,13.8954305 32,15 L32,28 C32,29.1045695 31.1045695,30 30,30 L10,30 C8.8954305,30 8,29.1045695 8,28 Z" id="Combined-Shape" fill="#FFFFFF" fill-rule="nonzero"></path>
            </g>
        </g>
    </g>
</svg>