<?xml version="1.0" standalone="no"?><!DOCTYPE svg PUBLIC "-//W3C//DTD SVG 1.1//EN" "http://www.w3.org/Graphics/SVG/1.1/DTD/svg11.dtd"><svg class="icon" width="32px" height="32.00px" viewBox="0 0 1024 1024" version="1.1" xmlns="http://www.w3.org/2000/svg"><path fill="#1296db" d="M329.216 860.16c-42.496 0-84.48-15.872-116.736-48.128-31.232-31.232-48.128-72.704-48.128-116.736 0-44.032 16.896-86.016 48.128-116.736L337.92 452.608c31.232-31.232 72.704-48.128 116.736-48.128 44.032 0 85.504 16.896 116.736 48.128 12.288 12.288 12.288 32.256 0 44.544-12.288 12.288-32.256 12.288-44.544 0-19.456-19.456-45.056-29.696-72.192-29.696s-53.248 10.752-72.192 29.696l-125.44 125.44c-39.936 39.936-39.936 104.96 0 144.896 19.456 19.456 45.056 29.696 72.192 29.696 27.648 0 53.248-10.752 72.192-29.696l125.44-125.44c12.288-12.288 32.256-12.288 44.544 0 12.288 12.288 12.288 32.256 0 44.544l-125.44 125.44c-32.256 32.256-74.752 48.128-116.736 48.128z m356.864-288.768l125.44-125.44c64.512-64.512 64.512-169.472 0-233.984-64.512-64.512-169.472-64.512-233.984 0L452.608 337.92c-12.288 12.288-12.288 32.256 0 44.544 12.288 12.288 32.256 12.288 44.544 0l125.44-125.44c19.456-19.456 45.056-29.696 72.192-29.696 27.648 0 53.248 10.752 72.192 29.696 39.936 39.936 39.936 104.96 0 144.896L641.536 527.36c-39.936 39.936-104.96 39.936-144.896 0-12.288-12.288-32.256-12.288-44.544 0-12.288 12.288-12.288 32.256 0 44.544 32.256 32.256 74.752 48.128 116.736 48.128s84.992-16.384 117.248-48.64z"  /></svg>