<?xml version="1.0" encoding="UTF-8" standalone="no"?>
<svg width="60px" height="60px" viewBox="0 0 60 60" version="1.1" xmlns="http://www.w3.org/2000/svg" xmlns:xlink="http://www.w3.org/1999/xlink">
    <!-- Generator: Sketch 47.1 (45422) - http://www.bohemiancoding.com/sketch -->
    <title>场景图标/为空/文档列表为空+LogoGray60h</title>
    <desc>Created with Sketch.</desc>
    <defs></defs>
    <g id="首页" stroke="none" stroke-width="1" fill="none" fill-rule="evenodd">
        <g id="在线文档为空" transform="translate(-814.000000, -394.000000)" fill="#D9D9D9">
            <g id="文档" transform="translate(321.000000, 122.000000)">
                <g id="暂无文档" transform="translate(493.000000, 272.000000)">
                    <g id="场景图标/为空/文档列表为空">
                        <path d="M9.20999653,43.6981873 L9.20999653,43.6981873 L20.3828907,21.3945301 C21.8462633,22.4637284 23.4938826,23.2965851 25.2693381,23.8367959 L14.0975062,46.1383325 C15.5197532,47.6098663 16.394547,49.6120572 16.394547,51.8181818 C16.394547,56.3368752 12.7245026,60 8.19727348,60 C3.67004435,60 0,56.3368752 0,51.8181818 C0,47.2994884 3.67004435,43.6363636 8.19727348,43.6363636 C8.54017271,43.6363636 8.87815447,43.6573782 9.20999653,43.6981873 Z M24.3651428,49.0909091 L44.3055815,49.0909091 C45.4259309,45.9767623 48.410403,43.7494888 51.9160654,43.7494888 C56.3806992,43.7494888 60,47.3619657 60,51.8181818 C60,56.2743979 56.3806992,59.8868749 51.9160654,59.8868749 C48.410403,59.8868749 45.4259309,57.6596013 44.3055815,54.5454545 L24.3651428,54.5454545 C24.5142229,53.6585223 24.5918204,52.7473969 24.5918204,51.8181818 C24.5918204,50.8889667 24.5142229,49.9778413 24.3651428,49.0909091 Z M31.0693925,16.3018127 L31.0693925,16.3018127 C30.7375504,16.3426218 30.3995687,16.3636364 30.0566694,16.3636364 C25.5294403,16.3636364 21.8593959,12.7005116 21.8593959,8.18181818 C21.8593959,3.66312477 25.5294403,0 30.0566694,0 C34.5838986,0 38.2539429,3.66312477 38.2539429,8.18181818 C38.2539429,10.3879428 37.3791492,12.3901337 35.9569021,13.8616675 L47.128734,36.1632041 C45.3532786,36.7034149 43.7056593,37.5362716 42.2422867,38.6054699 L31.0693925,16.3018127 Z" id="Logo"></path>
                    </g>
                </g>
            </g>
        </g>
    </g>
</svg>