<?xml version="1.0" encoding="UTF-8" standalone="no"?>
<svg width="24px" height="24px" viewBox="0 0 24 24" version="1.1" xmlns="http://www.w3.org/2000/svg" xmlns:xlink="http://www.w3.org/1999/xlink">
    <!-- Generator: Sketch 48.2 (47327) - http://www.bohemiancoding.com/sketch -->
    <title>Logo/24+LogoBlue24h</title>
    <desc>Created with Sketch.</desc>
    <defs></defs>
    <g id="AAB" stroke="none" stroke-width="1" fill="none" fill-rule="evenodd" transform="translate(-125.000000, -107.000000)">
        <g id="Logo/24" transform="translate(125.000000, 107.000000)">
            <g id="Logo">
                <path d="M4,0 L20,0 C22.209139,-4.05812251e-16 24,1.790861 24,4 L24,20 C24,22.209139 22.209139,24 20,24 L4,24 C1.790861,24 2.705415e-16,22.209139 0,20 L0,4 C-2.705415e-16,1.790861 1.790861,4.05812251e-16 4,0 Z" id="bg" fill="#328FFA"></path>
                <path d="M6.45599907,14.85285 L9.43543753,8.90520802 C9.82567022,9.19032757 10.2650354,9.41242269 10.7384901,9.55647889 L7.75933498,15.5035553 C8.13860086,15.8959644 8.37187919,16.4298819 8.37187919,17.0181818 C8.37187919,18.2231667 7.3932007,19.2 6.18593959,19.2 C4.97867849,19.2 4,18.2231667 4,17.0181818 C4,15.8131969 4.97867849,14.8363636 6.18593959,14.8363636 C6.27737939,14.8363636 6.36750786,14.8419675 6.45599907,14.85285 Z M10.4973714,16.2909091 L15.8148217,16.2909091 C16.1135816,15.46047 16.9094408,14.8665303 17.8442841,14.8665303 C19.0348531,14.8665303 20,15.8298575 20,17.0181818 C20,18.2065061 19.0348531,19.1698333 17.8442841,19.1698333 C16.9094408,19.1698333 16.1135816,18.5758937 15.8148217,17.7454545 L10.4973714,17.7454545 C10.5371261,17.5089393 10.5578188,17.2659725 10.5578188,17.0181818 C10.5578188,16.7703911 10.5371261,16.5274243 10.4973714,16.2909091 Z M12.2851713,7.54715005 C12.1966801,7.55803249 12.1065516,7.56363636 12.0151118,7.56363636 C10.8078507,7.56363636 9.82917225,6.58680309 9.82917225,5.38181818 C9.82917225,4.17683327 10.8078507,3.2 12.0151118,3.2 C13.2223729,3.2 14.2010514,4.17683327 14.2010514,5.38181818 C14.2010514,5.97011809 13.9677731,6.50403565 13.5885072,6.89644468 L16.5676624,12.8435211 C16.0942076,12.9875773 15.6548425,13.2096724 15.2646098,13.494792 L12.2851713,7.54715005 Z" fill="#FFFFFF"></path>
            </g>
        </g>
    </g>
</svg>