<?xml version="1.0" standalone="no"?><!DOCTYPE svg PUBLIC "-//W3C//DTD SVG 1.1//EN" "http://www.w3.org/Graphics/SVG/1.1/DTD/svg11.dtd"><svg class="icon" width="32px" height="32.00px" viewBox="0 0 1024 1024" version="1.1" xmlns="http://www.w3.org/2000/svg"><path fill="#1296db" d="M771.584 835.584H250.368c-62.976 0-114.176-51.2-114.176-114.176V330.24c0-62.976 51.2-114.176 114.176-114.176h521.216c62.976 0 114.176 51.2 114.176 114.176v391.168c0 62.976-51.2 114.176-114.176 114.176zM250.368 282.624c-26.112 0-47.616 21.504-47.616 47.616v391.168c0 26.112 21.504 47.616 47.616 47.616h521.216c26.112 0 47.616-21.504 47.616-47.616V330.24c0-26.112-21.504-47.616-47.616-47.616H250.368z"  /><path fill="#1296db" d="M510.976 540.672c-26.624 0-53.248-8.704-74.752-26.112L163.84 293.888l41.984-51.712 272.384 220.16c18.944 15.36 47.104 15.36 66.048 0l272.384-220.16 41.984 51.712-272.384 220.16c-22.016 17.92-48.64 26.624-75.264 26.624z"  /></svg>