<?xml version="1.0" encoding="UTF-8" standalone="no"?>
<svg width="16px" height="12px" viewBox="0 0 16 12" version="1.1" xmlns="http://www.w3.org/2000/svg" xmlns:xlink="http://www.w3.org/1999/xlink">
    <!-- Generator: Sketch 47.1 (45422) - http://www.bohemiancoding.com/sketch -->
    <title>通用图标/头像/12+MembersSmallGray</title>
    <desc>Created with Sketch.</desc>
    <defs></defs>
    <g id="Symbols" stroke="none" stroke-width="1" fill="none" fill-rule="evenodd">
        <g id="通用图标/头像/12+MembersSmallGray" fill="#D9D9D9">
            <path d="M3.13043478,3.54545455 C3.13043478,4.64945455 3.53973913,5.74663636 4.17391304,6.54545455 C4.34295652,6.73418182 4.43478261,6.98563636 4.43478261,7.36363636 C4.43478261,7.65463636 4.21982609,8.028 3.91304348,8.18181818 L0.52173913,10.0909091 C0.160173913,10.275 0,10.5531818 0,10.9090909 L0,11.4545455 C0,11.6948182 0.291913043,12 0.782608696,12 L11.4782609,12 C11.708087,12 12,11.6948182 12,11.4545455 L12,10.9090909 C12,10.5531818 11.8398261,10.275 11.4782609,10.0909091 L8.08695652,8.18181818 C7.78017391,8.028 7.56521739,7.65463636 7.56521739,7.36363636 C7.56521739,6.98563636 7.65704348,6.73418182 7.82608696,6.54545455 C8.46026087,5.74663636 8.86956522,4.64945455 8.86956522,3.54545455 C8.86956522,1.58727273 7.58478261,0 6,0 C4.41521739,0 3.13043478,1.58727273 3.13043478,3.54545455 Z" id="Path"></path>
            <path d="M13.9265794,11 L15.6086957,11 C15.7810652,11 16,10.7711136 16,10.5909091 L16,10.1818182 C16,9.91488636 15.8798696,9.70625 15.6086957,9.56818182 L13.0652174,8.13636364 C12.8351304,8.021 12.673913,7.74097727 12.673913,7.52272727 C12.673913,7.23922727 12.7427826,7.05063636 12.8695652,6.90909091 C13.3451957,6.30997727 13.6521739,5.48709091 13.6521739,4.65909091 C13.6521739,3.19045455 12.688587,2 11.5,2 C10.311413,2 9.34782609,3.19045455 9.34782609,4.65909091 C9.34782609,5.48709091 9.65480435,6.30997727 10.1304348,6.90909091 C10.2572174,7.05063636 10.326087,7.23922727 10.326087,7.52272727 C10.326087,7.74097727 10.1648696,8.021 9.93478261,8.13636364 L9.68012422,8.27972028 L13.2608696,10.2954545 C13.6071583,10.4717674 13.8230474,10.7090036 13.9265794,11 Z" id="Combined-Shape"></path>
        </g>
    </g>
</svg>