<?xml version="1.0" encoding="UTF-8" standalone="no"?>
<svg width="16px" height="16px" viewBox="0 0 16 16" version="1.1" xmlns="http://www.w3.org/2000/svg" xmlns:xlink="http://www.w3.org/1999/xlink">
    <!-- Generator: Sketch 47.1 (45422) - http://www.bohemiancoding.com/sketch -->
    <title>场景图标/顶部功能栏/更多操作+MoreSmallGray</title>
    <desc>Created with Sketch.</desc>
    <defs></defs>
    <g id="Symbols" stroke="none" stroke-width="1" fill="none" fill-rule="evenodd">
        <g id="场景图标/顶部功能栏/更多操作+MoreSmallGray" fill="#999999">
            <path d="M2.5,10 C1.67157288,10 1,9.32842712 1,8.5 C1,7.67157288 1.67157288,7 2.5,7 C3.32842712,7 4,7.67157288 4,8.5 C4,9.32842712 3.32842712,10 2.5,10 Z M8.5,10 C7.67157288,10 7,9.32842712 7,8.5 C7,7.67157288 7.67157288,7 8.5,7 C9.32842712,7 10,7.67157288 10,8.5 C10,9.32842712 9.32842712,10 8.5,10 Z M14.5,10 C13.6715729,10 13,9.32842712 13,8.5 C13,7.67157288 13.6715729,7 14.5,7 C15.3284271,7 16,7.67157288 16,8.5 C16,9.32842712 15.3284271,10 14.5,10 Z" id="更多"></path>
        </g>
    </g>
</svg>