<?xml version="1.0" standalone="no"?><!DOCTYPE svg PUBLIC "-//W3C//DTD SVG 1.1//EN" "http://www.w3.org/Graphics/SVG/1.1/DTD/svg11.dtd"><svg class="icon" width="32px" height="32.00px" viewBox="0 0 1024 1024" version="1.1" xmlns="http://www.w3.org/2000/svg"><path fill="#1296db" d="M516.096 902.144c-83.456 0-151.552-65.536-155.648-147.968h-128c-51.2 0-92.672-41.472-92.672-92.672 0-43.008 29.184-79.36 69.12-89.6v-174.08C208.384 248.832 342.016 128 506.88 128c164.352 0 298.496 120.832 298.496 269.824v173.568c39.424 10.752 69.12 46.592 69.12 89.6 0 51.2-41.472 92.672-92.672 92.672h-109.056c-5.12 82.432-73.216 148.48-156.672 148.48z m-89.088-148.48c4.096 45.568 42.496 81.408 89.088 81.408s84.992-35.84 89.088-81.408H427.008z m-194.56-118.784c-14.336 0-26.112 11.776-26.112 26.112s11.776 26.112 26.112 26.112h548.352c14.336 0 26.112-11.776 26.112-26.112s-11.776-26.112-26.112-26.112h-9.216c-18.432 0-33.28-14.848-33.28-33.28V397.824C738.304 285.696 634.368 194.56 506.88 194.56S274.944 285.696 274.944 397.824v203.776c0 18.432-14.848 33.28-33.28 33.28h-9.216z"  /></svg>