<?xml version="1.0" standalone="no"?><!DOCTYPE svg PUBLIC "-//W3C//DTD SVG 1.1//EN" "http://www.w3.org/Graphics/SVG/1.1/DTD/svg11.dtd"><svg class="icon" width="32px" height="32.00px" viewBox="0 0 1024 1024" version="1.1" xmlns="http://www.w3.org/2000/svg"><path fill="#1296db" d="M782.336 848.896h-542.72c-49.664 0-90.112-40.448-90.112-90.112V282.112c0-49.664 40.448-90.112 90.112-90.112h542.72c49.664 0 90.112 40.448 90.112 90.112v476.672c0 49.664-40.448 90.112-90.112 90.112zM239.616 258.56c-12.8 0-23.552 10.752-23.552 23.552v476.672c0 12.8 10.752 23.552 23.552 23.552h542.72c12.8 0 23.552-10.752 23.552-23.552V282.112c0-12.8-10.752-23.552-23.552-23.552h-542.72z"  /><path fill="#1296db" d="M366.592 413.184m-53.248 0a53.248 53.248 0 1 0 106.496 0 53.248 53.248 0 1 0-106.496 0Z"  /><path fill="#1296db" d="M270.848 840.704c-8.704 0-17.92-3.584-24.576-10.752-12.288-13.312-11.776-34.304 1.536-47.104l356.864-331.776c12.288-11.776 31.744-11.776 44.544-1.024l202.752 175.104c13.824 11.776 15.36 33.28 3.584 47.104-11.776 13.824-32.768 15.36-47.104 3.584l-180.224-155.648-334.848 311.296c-6.144 6.144-14.336 9.216-22.528 9.216z"  /></svg>