<?xml version="1.0" standalone="no"?><!DOCTYPE svg PUBLIC "-//W3C//DTD SVG 1.1//EN" "http://www.w3.org/Graphics/SVG/1.1/DTD/svg11.dtd"><svg class="icon" width="32px" height="32.00px" viewBox="0 0 1024 1024" version="1.1" xmlns="http://www.w3.org/2000/svg"><path fill="#1296db" d="M166.4 166.4v321.024h321.024V166.4H166.4z m257.024 256.512H230.912V230.912h192.512v192zM368.128 368.128H285.696V285.696h82.432v82.432zM166.4 532.48v321.024h321.024V532.48H166.4z m257.024 256.512H230.912v-192.512h192.512v192.512z m-55.296-54.784H285.696v-82.432h82.432v82.432z m245.76-121.856h-79.872V532.48h79.872v79.872z m79.872 80.384h-79.872v-79.872h79.872v79.872z m160.768-80.384h-79.872V532.48h79.872v79.872z m-80.896 240.64h-79.872V773.12h79.872v79.872z m-159.744-80.384h-79.872v-79.872h79.872v79.872z m240.64 0h-160.768v-79.872h160.768v79.872zM533.504 166.4v321.024h321.024V166.4h-321.024z m256.512 256.512h-192.512V230.912h192.512v192z m-54.784-54.784h-82.432V285.696h82.432v82.432z"  /></svg>