<?xml version="1.0" standalone="no"?><!DOCTYPE svg PUBLIC "-//W3C//DTD SVG 1.1//EN" "http://www.w3.org/Graphics/SVG/1.1/DTD/svg11.dtd"><svg class="icon" width="32px" height="32.00px" viewBox="0 0 1024 1024" version="1.1" xmlns="http://www.w3.org/2000/svg"><path fill="#1296db" d="M463.36 781.312c-179.2 0-325.12-141.824-325.12-316.416S284.16 148.48 463.36 148.48 788.48 290.304 788.48 464.896c0 81.92-31.744 159.232-89.6 218.624-61.952 62.976-145.408 97.792-235.52 97.792z m0-566.272C321.024 215.04 204.8 327.168 204.8 464.896s116.224 249.856 258.56 249.856c71.68 0 138.24-27.648 187.904-78.336 45.568-46.592 70.656-107.52 70.656-172.032C721.92 327.168 606.208 215.04 463.36 215.04z"  /><path fill="#1296db" d="M835.072 867.328c-8.704 0-16.896-3.072-23.552-9.728l-160.256-160.256c-12.8-12.8-12.8-34.304 0-47.104 12.8-12.8 34.304-12.8 47.104 0l160.256 160.256c12.8 12.8 12.8 34.304 0 47.104-6.656 6.144-14.848 9.728-23.552 9.728z"  /></svg>