<?xml version="1.0" encoding="UTF-8" standalone="no"?>
<svg width="14px" height="14px" viewBox="0 0 14 14" version="1.1" xmlns="http://www.w3.org/2000/svg" xmlns:xlink="http://www.w3.org/1999/xlink">
    <!-- Generator: Sketch 47.1 (45422) - http://www.bohemiancoding.com/sketch -->
    <title>图标/通用图标/搜索+SearchSmallGray</title>
    <desc>Created with Sketch.</desc>
    <defs></defs>
    <g id="Symbols" stroke="none" stroke-width="1" fill="none" fill-rule="evenodd">
        <g id="场景图标/顶部功能栏/搜索" transform="translate(-1.000000, -1.000000)" fill="#999999">
            <path d="M14.7430947,13.5740557 L10.9100947,9.73955572 C11.5971654,8.80245935 11.9652265,7.66953223 11.9600947,6.50755572 C11.946985,3.47441147 9.49371664,1.01757444 6.46059465,1.00005572 C5.00907481,0.993488427 3.61521603,1.56771229 2.58953064,2.59480646 C1.56384524,3.62190064 0.991535071,5.01654626 1.00009465,6.46805572 C1.01320436,9.50147611 3.46669652,11.958537 6.50009465,11.9760557 C7.66680484,11.9811124 8.80387114,11.6087552 9.74159465,10.9145557 L9.74559465,10.9115557 L13.5750947,14.7430557 C13.7821435,14.9602692 14.0906604,15.0481921 14.3811096,14.9727584 C14.6715587,14.8973248 14.898302,14.6703873 14.9734871,14.3798737 C15.0486722,14.0893602 14.9604853,13.7809186 14.7430947,13.5740557 L14.7430947,13.5740557 Z M6.5164231,10.9999615 C4.02566943,10.9856537 2.01100507,8.97109944 2.00007114,6.48385641 C1.99334854,5.29378464 2.4633425,4.15041629 3.30543052,3.30826965 C4.14751853,2.46612301 5.29180848,1.99509507 6.4835769,2.00003852 C8.97433057,2.01434634 10.9889949,4.02890056 10.9999289,6.51614359 C11.0066515,7.70621536 10.5366575,8.84958371 9.69456948,9.69173035 C8.85248147,10.533877 7.70819152,11.0049049 6.5164231,10.9999615 Z" id="图标/通用图标/搜索+SearchSmallGray"></path>
        </g>
    </g>
</svg>