<?xml version="1.0" standalone="no"?><!DOCTYPE svg PUBLIC "-//W3C//DTD SVG 1.1//EN" "http://www.w3.org/Graphics/SVG/1.1/DTD/svg11.dtd"><svg class="icon" width="32px" height="32.00px" viewBox="0 0 1024 1024" version="1.1" xmlns="http://www.w3.org/2000/svg"><path fill="#1296db" d="M512 633.344c-67.072 0-121.344-54.272-121.344-121.344S444.928 390.656 512 390.656s121.344 54.272 121.344 121.344-54.272 121.344-121.344 121.344z m0-176.128c-30.208 0-54.784 24.576-54.784 54.784 0 30.208 24.576 54.784 54.784 54.784s54.784-24.576 54.784-54.784c0-30.208-24.576-54.784-54.784-54.784z m9.728 455.168h-11.776c-39.424 0-75.264-26.624-86.528-64.512-2.048-7.168-7.68-13.312-15.36-15.872-13.824-4.608-27.648-10.24-40.96-16.896-7.168-3.584-14.848-3.072-21.504 0.512l-3.072 1.536c-34.816 18.944-78.848 12.8-107.008-15.36l-8.192-8.192c-28.16-28.16-34.304-72.192-15.36-107.008l2.048-4.096c3.584-6.656 3.584-14.848 0.512-22.016-5.632-11.264-10.752-23.552-14.848-35.328-2.56-7.168-8.192-12.8-15.36-14.848l-7.68-2.048c-37.888-11.264-64.512-46.592-64.512-86.528v-11.776c0-39.424 26.624-75.264 64.512-86.528l5.12-1.536c7.68-2.048 13.312-8.192 15.872-15.872 4.096-12.288 8.704-24.064 13.824-35.84 3.072-6.656 3.072-14.848-0.512-20.992l-3.584-6.656c-18.944-34.816-12.8-78.848 15.36-107.008l8.192-8.192c28.16-28.16 71.68-34.304 107.008-15.36 7.168 4.096 15.872 4.096 23.552 0 12.8-6.656 26.112-12.8 39.936-17.408 7.168-2.56 12.288-8.192 14.336-15.36l1.024-3.072c11.264-37.888 46.592-64.512 86.528-64.512h11.776c39.424 0 75.264 26.624 86.528 64.512 2.048 7.168 7.68 13.312 15.36 15.872 13.824 4.608 27.648 10.24 40.96 16.896 7.168 3.584 14.848 3.072 21.504-0.512l3.072-1.536c34.816-18.944 78.848-12.8 107.008 15.36l8.192 8.192c28.16 28.16 34.304 72.192 15.36 107.008l-2.048 4.096c-3.584 6.656-3.584 14.848-0.512 22.016 5.632 11.264 10.752 23.552 14.848 35.328 2.56 7.168 8.192 12.8 15.36 14.848l7.68 2.048c37.888 11.264 64.512 46.592 64.512 86.528v11.776c0 39.424-26.624 75.264-64.512 86.528l-5.12 1.536c-7.68 2.048-13.312 8.192-15.872 15.872-4.096 12.288-8.704 24.064-13.824 35.84-3.072 6.656-3.072 14.848 0.512 20.992l3.584 6.656c18.944 34.816 12.8 78.848-15.36 107.008l-8.192 8.192c-28.16 28.16-72.192 34.304-107.008 15.36-7.168-4.096-15.872-4.096-23.552 0-12.8 6.656-26.112 12.8-39.936 17.408-6.656 2.56-12.288 8.192-14.336 15.36l-1.024 3.072c-11.264 37.888-47.104 64.512-86.528 64.512z m-164.864-166.4c13.824 0 27.136 3.072 39.936 9.216 10.24 5.12 21.504 9.728 32.256 13.312 28.16 9.216 49.664 31.744 57.856 59.904 3.072 9.728 12.288 16.896 22.528 16.896h11.776c10.24 0 19.456-7.168 22.528-16.896l1.024-3.072c8.192-27.136 28.672-49.664 55.296-59.392 10.752-4.096 21.504-8.704 31.744-13.824 27.136-14.336 59.392-13.824 86.016 0.512 9.216 5.12 20.992 3.584 28.16-4.096l8.192-8.192c7.168-7.168 9.216-18.944 4.096-27.648l-3.584-6.656c-13.312-24.576-14.336-54.784-2.56-80.896 4.096-9.216 8.192-18.944 11.264-28.672 9.216-28.672 31.744-50.688 60.416-58.88l5.12-1.536c9.728-3.072 16.896-12.288 16.896-22.528V501.76c0-10.24-7.168-19.456-16.896-22.528l-7.68-2.048c-27.648-8.192-50.176-29.184-59.392-56.832-3.584-9.728-7.168-19.456-11.776-28.672-12.8-26.112-12.288-57.344 1.536-82.944l2.048-4.096c5.12-9.216 3.072-20.48-4.096-27.648l-8.192-8.192c-7.168-7.168-18.944-9.216-27.648-4.096l-3.072 1.536c-25.6 13.824-56.832 14.336-82.944 1.536-10.24-5.12-21.504-9.728-32.256-13.312-28.16-9.216-49.664-31.744-57.856-59.904-3.072-9.728-12.288-16.896-22.528-16.896h-11.776c-10.24 0-19.456 7.168-22.528 16.896l-1.024 3.072c-8.704 27.648-29.696 49.664-56.32 59.392-10.752 4.096-21.504 8.704-31.744 13.824-27.136 14.336-59.392 13.824-86.016-0.512-9.216-5.12-20.992-3.584-28.16 4.096l-8.192 8.192c-7.168 7.168-9.216 18.944-4.096 27.648l3.584 6.656c13.312 24.576 14.336 54.784 2.56 80.384-4.096 9.216-8.192 18.944-11.264 28.672-9.216 28.672-31.744 50.688-60.416 58.88l-5.12 1.536c-9.728 3.072-16.896 12.288-16.896 22.528v11.776c0 10.24 7.168 19.456 16.896 22.528l7.68 2.048c27.648 8.192 49.664 29.184 59.392 56.832 3.584 9.728 7.168 19.456 11.776 28.672 12.8 26.112 12.288 57.344-1.536 82.944l-2.048 4.096c-5.12 9.216-3.072 20.48 4.096 27.648l8.192 8.192c7.168 7.168 18.944 9.216 27.648 4.096l3.072-1.536c14.336-6.144 29.184-10.24 44.032-10.24z"  /></svg>