<?xml version="1.0" standalone="no"?><!DOCTYPE svg PUBLIC "-//W3C//DTD SVG 1.1//EN" "http://www.w3.org/Graphics/SVG/1.1/DTD/svg11.dtd"><svg class="icon" width="32px" height="32.00px" viewBox="0 0 1024 1024" version="1.1" xmlns="http://www.w3.org/2000/svg"><path fill="#1296db" d="M699.392 894.976H318.976c-80.384 0-145.92-65.536-145.92-145.92V573.44c0-80.384 65.536-145.92 145.92-145.92h380.416c80.384 0 145.92 65.536 145.92 145.92v175.616c-0.512 80.384-65.536 145.92-145.92 145.92zM318.976 494.08c-43.52 0-79.36 35.328-79.36 79.36v175.616c0 43.52 35.328 79.36 79.36 79.36h380.416c43.52 0 79.36-35.328 79.36-79.36V573.44c0-43.52-35.328-79.36-79.36-79.36H318.976zM686.592 339.968c-8.704 0-16.896-3.072-23.552-9.728L508.928 176.128l-153.6 154.112c-12.8 12.8-34.304 12.8-47.104 0-12.8-12.8-12.8-34.304 0-47.104l156.16-156.16c11.776-11.776 27.648-18.432 44.544-18.432s32.768 6.656 44.544 18.432l156.16 156.16c12.8 12.8 12.8 34.304 0 47.104-6.144 6.656-14.848 9.728-23.04 9.728z"  /><path fill="#1296db" d="M506.88 705.536s-0.512 0 0 0c-18.432 0-33.28-14.848-33.28-33.28l1.536-527.872c0-18.432 14.848-33.28 33.28-33.28s33.28 14.848 33.28 33.28l-1.536 527.872c-0.512 18.944-15.36 33.28-33.28 33.28z"  /></svg>