<?xml version="1.0" standalone="no"?><!DOCTYPE svg PUBLIC "-//W3C//DTD SVG 1.1//EN" "http://www.w3.org/Graphics/SVG/1.1/DTD/svg11.dtd"><svg class="icon" width="32px" height="32.00px" viewBox="0 0 1024 1024" version="1.1" xmlns="http://www.w3.org/2000/svg"><path fill="#1296db" d="M401.92 852.48h-5.12c-20.48-1.536-39.936-10.24-54.784-25.088L190.464 675.84c-14.848-14.848-24.064-34.304-25.088-54.784-1.536-21.504 6.144-42.496 20.992-57.344l369.664-369.664c14.336-14.336 34.816-22.016 56.32-20.992l144.384 7.168c43.008 2.048 79.36 38.912 81.408 81.408l7.168 144.384c1.024 20.992-6.656 41.472-20.992 56.32l-369.664 369.664c-14.336 12.8-32.768 20.48-52.736 20.48z m205.824-613.376c-2.048 0-4.096 0.512-5.12 1.536l-369.664 369.664c-1.536 1.536-1.536 4.608-1.536 6.144 0.512 4.096 2.56 8.704 6.144 12.288L389.12 779.776c3.584 3.584 8.192 5.632 12.288 6.144 1.536 0 4.096 0 6.144-1.536L776.704 414.72c1.024-1.024 1.536-3.072 1.536-5.632l-7.168-144.384c-0.512-9.216-9.216-17.92-18.432-18.432l-144.384-7.168h-0.512z"  /><path fill="#1296db" d="M641.024 376.32m-50.688 0a50.688 50.688 0 1 0 101.376 0 50.688 50.688 0 1 0-101.376 0Z"  /></svg>