<?xml version="1.0" standalone="no"?><!DOCTYPE svg PUBLIC "-//W3C//DTD SVG 1.1//EN" "http://www.w3.org/Graphics/SVG/1.1/DTD/svg11.dtd"><svg class="icon" width="32px" height="32.00px" viewBox="0 0 1024 1024" version="1.1" xmlns="http://www.w3.org/2000/svg"><path fill="#1296db" d="M820.736 230.4H201.728c-18.432 0-33.28-14.848-33.28-33.28s14.848-33.28 33.28-33.28h619.008c18.432 0 33.28 14.848 33.28 33.28s-14.848 33.28-33.28 33.28zM511.488 878.08c-18.432 0-33.28-14.848-33.28-33.28V368.128c0-18.432 14.848-33.28 33.28-33.28s33.28 14.848 33.28 33.28V844.8c0 18.432-14.848 33.28-33.28 33.28z"  /><path fill="#1296db" d="M673.28 549.376c-8.704 0-16.896-3.072-23.552-9.728l-138.24-138.24-138.24 138.24c-12.8 12.8-34.304 12.8-47.104 0-12.8-12.8-12.8-34.304 0-47.104l161.792-161.792c12.8-12.8 34.304-12.8 47.104 0l161.792 161.792c12.8 12.8 12.8 34.304 0 47.104-6.656 6.144-14.848 9.728-23.552 9.728z"  /></svg>