<?xml version="1.0" standalone="no"?><!DOCTYPE svg PUBLIC "-//W3C//DTD SVG 1.1//EN" "http://www.w3.org/Graphics/SVG/1.1/DTD/svg11.dtd"><svg class="icon" width="32px" height="32.00px" viewBox="0 0 1024 1024" version="1.1" xmlns="http://www.w3.org/2000/svg"><path fill="#1296db" d="M801.792 844.8H221.696c-38.912 0-71.168-31.744-71.168-71.168V382.464c0-38.912 31.744-71.168 71.168-71.168h88.576c2.56 0 4.608-2.048 4.608-4.608v-56.32c0-38.912 31.744-71.168 71.168-71.168h252.416c38.912 0 71.168 31.744 71.168 71.168V307.2c0 2.56 2.048 4.608 4.608 4.608h88.576c38.912 0 71.168 31.744 71.168 71.168v391.168c-1.024 38.912-32.768 70.656-72.192 70.656zM221.696 378.368c-2.56 0-4.608 2.048-4.608 4.608v391.168c0 2.56 2.048 4.608 4.608 4.608h580.608c2.56 0 4.608-2.048 4.608-4.608V382.464c0-2.56-2.048-4.608-4.608-4.608h-88.576c-38.912 0-71.168-31.744-71.168-71.168v-56.32c0-2.56-2.048-4.608-4.608-4.608H385.536c-2.56 0-4.608 2.048-4.608 4.608V307.2c0 38.912-31.744 71.168-71.168 71.168H221.696z m288.768 350.72c-92.672 0-167.936-75.264-167.936-167.936 0-92.672 75.264-167.936 167.936-167.936 92.672 0 167.936 75.264 167.936 167.936 0 92.672-75.264 167.936-167.936 167.936z m0-269.312c-55.808 0-101.376 45.568-101.376 101.376s45.568 101.376 101.376 101.376 101.376-45.568 101.376-101.376-45.568-101.376-101.376-101.376z"  /></svg>