<?xml version="1.0" standalone="no"?><!DOCTYPE svg PUBLIC "-//W3C//DTD SVG 1.1//EN" "http://www.w3.org/Graphics/SVG/1.1/DTD/svg11.dtd"><svg class="icon" width="32px" height="32.00px" viewBox="0 0 1024 1024" version="1.1" xmlns="http://www.w3.org/2000/svg"><path fill="#1296db" d="M506.368 667.648c-76.8 0-139.776-62.464-139.776-139.776V286.208c0-76.8 62.464-139.776 139.776-139.776s139.776 62.464 139.776 139.776v241.664c0 76.8-62.976 139.776-139.776 139.776z m0-454.656c-40.448 0-73.216 32.768-73.216 73.216v241.664c0 40.448 32.768 73.216 73.216 73.216s73.216-32.768 73.216-73.216V286.208c0-40.448-32.768-73.216-73.216-73.216zM507.904 883.712c-18.432 0-33.28-14.848-33.28-33.28v-76.288c0-18.432 14.848-33.28 33.28-33.28s33.28 14.848 33.28 33.28v76.288c0 18.432-14.848 33.28-33.28 33.28z"  /><path fill="#1296db" d="M508.416 803.84c-155.648 0-282.624-126.464-282.624-282.624 0-18.432 14.848-33.28 33.28-33.28s33.28 14.848 33.28 33.28c0 119.296 96.768 216.064 216.064 216.064 119.296 0 216.064-96.768 216.064-216.064 0-18.432 14.848-33.28 33.28-33.28s33.28 14.848 33.28 33.28c0 156.16-126.464 282.624-282.624 282.624z"  /></svg>