<?xml version="1.0" standalone="no"?><!DOCTYPE svg PUBLIC "-//W3C//DTD SVG 1.1//EN" "http://www.w3.org/Graphics/SVG/1.1/DTD/svg11.dtd"><svg class="icon" width="32px" height="32.00px" viewBox="0 0 1024 1024" version="1.1" xmlns="http://www.w3.org/2000/svg"><path fill="#1296db" d="M865.28 675.84v46.08c0 50.688-41.472 92.16-92.16 92.16H250.88c-50.688 0-92.16-41.472-92.16-92.16V291.84c0-50.688 41.472-92.16 92.16-92.16h522.24c50.688 0 92.16 41.472 92.16 92.16v46.08H419.84c-50.688 0-92.16 41.472-92.16 92.16v153.6c0 50.688 41.472 92.16 92.16 92.16h445.44z m0-276.48v215.04H419.84c-16.896 0-30.72-13.824-30.72-30.72V430.08c0-16.896 13.824-30.72 30.72-30.72h445.44z m-322.56 107.52c0-25.6-20.48-46.08-46.08-46.08s-46.08 20.48-46.08 46.08c0 25.088 20.48 46.08 46.08 46.08s46.08-20.992 46.08-46.08z"  /></svg>